<?xml version="1.0" encoding="UTF-8" standalone="yes"?>
<!DOCTYPE svg PUBLIC "-//W3C//DTD SVG 1.0//EN" "http://www.w3.org/TR/2001/REC-SVG-20010904/DTD/svg10.dtd">
<svg height="400" onload="Init(evt)" onmousemove=" GetTrueCoords(evt); 
			ShowTooltip(evt, true)" onmouseout="ShowTooltip(evt, false)" width="1000" xmlns="http://www.w3.org/2000/svg" xmlns:svg="http://www.w3.org/2000/svg" xmlns:xlink="http://www.w3.org/1999/xlink">
	<script  />
	<polyline points="10,50 810,50 " style="fill-opacity: 0; stroke: rgb(250,123,23); stroke-opacity: 0.1" />
	<polyline points="10,100 810,100 " style="fill-opacity: 0; stroke: rgb(250,123,23); stroke-opacity: 0.1" />
	<polyline points="10,150 810,150 " style="fill-opacity: 0; stroke: rgb(250,123,23); stroke-opacity: 0.1" />
	<polyline points="10,200 810,200 " style="fill-opacity: 0; stroke: rgb(250,123,23); stroke-opacity: 0.1" />
	<text x="20" y="30">Genome 218787_281:Streptomyces clavuligerus ATCC 27064 ADGD01    Gen:281</text>
	<polygon points="483,42 483,58 487.37,58 489,50 487.37,42 " style="fill: rgb(255,255,255); fill-opacity: 0; stroke: black; stroke-opacity: 1; stroke-width: 1" >
<title>Identity:0 Organism:Streptomyces clavuligerus ATCC 27064 ADGD01 Coordinates:10980 10300
Direction:- Gen Id:fig|6666666.103162.peg.271 Function MoeX5</title></polygon>
	<polygon points="477,42 477,58 481.37,58 483,50 481.37,42 " style="fill: rgb(255,255,255); fill-opacity: 0; stroke: black; stroke-opacity: 1; stroke-width: 1" >
<title>Identity:0 Organism:Streptomyces clavuligerus ATCC 27064 ADGD01 Coordinates:11639 10977
Direction:- Gen Id:fig|6666666.103162.peg.272 Function ABC transporter, ATP-binding component</title></polygon>
	<polygon points="463,42 463,58 468.37,58 470,50 468.37,42 " style="fill: rgb(255,255,255); fill-opacity: 0; stroke: black; stroke-opacity: 1; stroke-width: 1" >
<title>Identity:0 Organism:Streptomyces clavuligerus ATCC 27064 ADGD01 Coordinates:13104 12415
Direction:- Gen Id:fig|6666666.103162.peg.273 Function Exonuclease SbcC</title></polygon>
	<polygon points="463,42 463,58 456.63,58 455,50 456.63,42 " style="fill: rgb(255,255,255); fill-opacity: 0; stroke: black; stroke-opacity: 1; stroke-width: 1" >
<title>Identity:0 Organism:Streptomyces clavuligerus ATCC 27064 ADGD01 Coordinates:13081 13968
Direction:+ Gen Id:fig|6666666.103162.peg.274 Function MoeGT5</title></polygon>
	<polygon points="454,42 454,58 447.63,58 446,50 447.63,42 " style="fill: rgb(255,255,255); fill-opacity: 0; stroke: black; stroke-opacity: 1; stroke-width: 1" >
<title>Identity:0 Organism:Streptomyces clavuligerus ATCC 27064 ADGD01 Coordinates:14080 14898
Direction:+ Gen Id:fig|6666666.103162.peg.275 Function FIG01134680: hypothetical protein</title></polygon>
	<polygon points="446,42 446,58 445.63,58 444,50 445.63,42 " style="fill: rgb(255,255,255); fill-opacity: 0; stroke: black; stroke-opacity: 1; stroke-width: 1" >
<title>Identity:0 Organism:Streptomyces clavuligerus ATCC 27064 ADGD01 Coordinates:14951 15115
Direction:+ Gen Id:fig|6666666.103162.peg.276 Function hypothetical protein</title></polygon>
	<polygon points="442,42 442,58 441.37,58 443,50 441.37,42 " style="fill: rgb(255,255,255); fill-opacity: 0; stroke: black; stroke-opacity: 1; stroke-width: 1" >
<title>Identity:0 Organism:Streptomyces clavuligerus ATCC 27064 ADGD01 Coordinates:15319 15185
Direction:- Gen Id:fig|6666666.103162.peg.277 Function hypothetical protein</title></polygon>
	<polygon points="426,42 426,58 435.37,58 437,50 435.37,42 " style="fill: rgb(255,255,255); fill-opacity: 0; stroke: black; stroke-opacity: 1; stroke-width: 1" >
<title>Identity:0 Organism:Streptomyces clavuligerus ATCC 27064 ADGD01 Coordinates:17089 15884
Direction:- Gen Id:fig|6666666.103162.peg.278 Function glutamate dehydrogenase (NAD(P)+)( EC:1.4.1.3 )</title></polygon>
	<polygon points="424,42 424,58 424.37,58 426,50 424.37,42 " style="fill: rgb(255,255,255); fill-opacity: 0; stroke: black; stroke-opacity: 1; stroke-width: 1" >
<title>Identity:0 Organism:Streptomyces clavuligerus ATCC 27064 ADGD01 Coordinates:17301 17086
Direction:- Gen Id:fig|6666666.103162.peg.279 Function MbtH-like protein</title></polygon>
	<polygon points="417,42 417,58 422.37,58 424,50 422.37,42 " style="fill: rgb(60,118,101); fill-opacity: 0.5778; stroke: black; stroke-opacity: 1; stroke-width: 1" >
<title>Identity:0.5778 Organism:Streptomyces clavuligerus ATCC 27064 ADGD01 Coordinates:17996 17298
Direction:- Gen Id:fig|6666666.103162.peg.280 Function Indole-3-glycerol phosphate synthase (EC 4.1.1.48)</title></polygon>
	<polygon points="410,42 410,58 415.37,58 417,50 415.37,42 " style="fill: rgb(254,30,30); fill-opacity: 0.448; stroke: black; stroke-opacity: 1; stroke-width: 1" >
<title>Identity:0.448 Organism:Streptomyces clavuligerus ATCC 27064 ADGD01 Coordinates:18691 17993
Direction:- Gen Id:fig|6666666.103162.peg.281 Function FIG01134443: hypothetical protein</title></polygon>
	<polygon points="400,42 400,58 408.37,58 410,50 408.37,42 " style="fill: rgb(162,132,136); fill-opacity: 0.6132; stroke: black; stroke-opacity: 1; stroke-width: 1" >
<title>Identity:0.6132 Organism:Streptomyces clavuligerus ATCC 27064 ADGD01 Coordinates:19840 18698
Direction:- Gen Id:fig|6666666.103162.peg.282 Function Butyryl-CoA dehydrogenase (EC 1.3.99.2)</title></polygon>
	<polygon points="396,42 396,58 398.37,58 400,50 398.37,42 " style="fill: rgb(198,102,204); fill-opacity: 0.6935; stroke: black; stroke-opacity: 1; stroke-width: 1" >
<title>Identity:0.6935 Organism:Streptomyces clavuligerus ATCC 27064 ADGD01 Coordinates:20228 19854
Direction:- Gen Id:fig|6666666.103162.peg.283 Function L-ectoine synthase (EC 4.2.1.-)</title></polygon>
	<polygon points="387,42 387,58 393.37,58 395,50 393.37,42 " style="fill: rgb(122,244,247); fill-opacity: 0.5992; stroke: black; stroke-opacity: 1; stroke-width: 1" >
<title>Identity:0.5992 Organism:Streptomyces clavuligerus ATCC 27064 ADGD01 Coordinates:21160 20360
Direction:- Gen Id:fig|6666666.103162.peg.284 Function Tryptophan synthase alpha chain (EC 4.2.1.20)</title></polygon>
	<polygon points="376,42 376,58 385.37,58 387,50 385.37,42 " style="fill: rgb(59,153,70); fill-opacity: 0.4959; stroke: black; stroke-opacity: 1; stroke-width: 1" >
<title>Identity:0.4959 Organism:Streptomyces clavuligerus ATCC 27064 ADGD01 Coordinates:22323 21157
Direction:- Gen Id:fig|6666666.103162.peg.285 Function Anthranilate phosphoribosyltransferase (EC 2.4.2.18)</title></polygon>
	<polygon points="373,42 373,58 374.37,58 376,50 374.37,42 " style="fill: rgb(191,126,54); fill-opacity: 0.4198; stroke: black; stroke-opacity: 1; stroke-width: 1" >
<title>Identity:0.4198 Organism:Streptomyces clavuligerus ATCC 27064 ADGD01 Coordinates:22673 22329
Direction:- Gen Id:fig|6666666.103162.peg.286 Function FIG01127693: hypothetical protein</title></polygon>
	<polygon points="357,42 357,58 371.37,58 373,50 371.37,42 " style="fill: rgb(192,187,181); fill-opacity: 0.4876; stroke: black; stroke-opacity: 1; stroke-width: 1" >
<title>Identity:0.4876 Organism:Streptomyces clavuligerus ATCC 27064 ADGD01 Coordinates:24346 22670
Direction:- Gen Id:fig|6666666.103162.peg.287 Function putative non-ribosomal peptide synthetase</title></polygon>
	<polygon points="353,42 353,58 337.63,58 336,50 337.63,42 " style="fill: rgb(255,255,255); fill-opacity: 0; stroke: black; stroke-opacity: 1; stroke-width: 1" >
<title>Identity:0 Organism:Streptomyces clavuligerus ATCC 27064 ADGD01 Coordinates:24844 26643
Direction:+ Gen Id:fig|6666666.103162.peg.288 Function Non-ribosomal peptide synthetase</title></polygon>
	<polygon points="336,42 336,58 296.63,58 295,50 296.63,42 " style="fill: rgb(192,187,181); fill-opacity: 0.3432; stroke: black; stroke-opacity: 1; stroke-width: 1" >
<title>Identity:0.3432 Organism:Streptomyces clavuligerus ATCC 27064 ADGD01 Coordinates:26640 30920
Direction:+ Gen Id:fig|6666666.103162.peg.289 Function FIG01135987: hypothetical protein</title></polygon>
	<polygon points="295,42 295,58 265.63,58 264,50 265.63,42 " style="fill: rgb(192,187,181); fill-opacity: 0.3276; stroke: black; stroke-opacity: 1; stroke-width: 1" >
<title>Identity:0.3276 Organism:Streptomyces clavuligerus ATCC 27064 ADGD01 Coordinates:30917 34261
Direction:+ Gen Id:fig|6666666.103162.peg.290 Function Siderophore biosynthesis non-ribosomal peptide synthetase modules</title></polygon>
	<text x="20" y="80">Genome 403886_3001:Streptomyces baarnensis JNZV01    Gen:3001</text>
	<polygon points="321,92 321,108 316.63,108 315,100 316.63,92 " style="fill: rgb(140,232,50); fill-opacity: 0.9337; stroke: black; stroke-opacity: 1; stroke-width: 1" >
<title>Identity:0.9337 Organism:Streptomyces baarnensis JNZV01 Coordinates:18368 17811
Direction:- Gen Id:fig|6666666.219512.peg.2991 Function transcriptional regulator, SARP family</title></polygon>
	<polygon points="328,92 328,108 336.37,108 338,100 336.37,92 " style="fill: rgb(120,130,12); fill-opacity: 0.9582; stroke: black; stroke-opacity: 1; stroke-width: 1" >
<title>Identity:0.9582 Organism:Streptomyces baarnensis JNZV01 Coordinates:19091 20248
Direction:+ Gen Id:fig|6666666.219512.peg.2992 Function 8-amino-7-oxononanoate synthase (EC 2.3.1.47)</title></polygon>
	<polygon points="339,92 339,108 349.37,108 351,100 349.37,92 " style="fill: rgb(4,137,2); fill-opacity: 0.9499; stroke: black; stroke-opacity: 1; stroke-width: 1" >
<title>Identity:0.9499 Organism:Streptomyces baarnensis JNZV01 Coordinates:20342 21601
Direction:+ Gen Id:fig|6666666.219512.peg.2993 Function 3-oxoacyl-[acyl-carrier-protein] synthase, KASII (EC 2.3.1.179)</title></polygon>
	<polygon points="351,92 351,108 357.37,108 359,100 357.37,92 " style="fill: rgb(67,151,96); fill-opacity: 0.8688; stroke: black; stroke-opacity: 1; stroke-width: 1" >
<title>Identity:0.8688 Organism:Streptomyces baarnensis JNZV01 Coordinates:21598 22446
Direction:+ Gen Id:fig|6666666.219512.peg.2994 Function putative enoyl-CoA hydratase</title></polygon>
	<polygon points="359,92 359,108 371.37,108 373,100 371.37,92 " style="fill: rgb(192,187,181); fill-opacity: 0.8866; stroke: black; stroke-opacity: 1; stroke-width: 1" >
<title>Identity:0.8866 Organism:Streptomyces baarnensis JNZV01 Coordinates:22443 23942
Direction:+ Gen Id:fig|6666666.219512.peg.2995 Function Siderophore biosynthesis non-ribosomal peptide synthetase modules</title></polygon>
	<polygon points="374,92 374,108 375.37,108 377,100 375.37,92 " style="fill: rgb(191,126,54); fill-opacity: 0.931; stroke: black; stroke-opacity: 1; stroke-width: 1" >
<title>Identity:0.931 Organism:Streptomyces baarnensis JNZV01 Coordinates:24038 24301
Direction:+ Gen Id:fig|6666666.219512.peg.2996 Function hypothetical protein</title></polygon>
	<polygon points="377,92 377,108 384.37,108 386,100 384.37,92 " style="fill: rgb(59,153,70); fill-opacity: 0.9188; stroke: black; stroke-opacity: 1; stroke-width: 1" >
<title>Identity:0.9188 Organism:Streptomyces baarnensis JNZV01 Coordinates:24305 25327
Direction:+ Gen Id:fig|6666666.219512.peg.2997 Function Anthranilate phosphoribosyltransferase (EC 2.4.2.18)</title></polygon>
	<polygon points="386,92 386,108 392.37,108 394,100 392.37,92 " style="fill: rgb(122,244,247); fill-opacity: 0.8961; stroke: black; stroke-opacity: 1; stroke-width: 1" >
<title>Identity:0.8961 Organism:Streptomyces baarnensis JNZV01 Coordinates:25308 26156
Direction:+ Gen Id:fig|6666666.219512.peg.2998 Function Tryptophan synthase alpha chain (EC 4.2.1.20)</title></polygon>
	<polygon points="394,92 394,108 395.37,108 397,100 395.37,92 " style="fill: rgb(198,102,204); fill-opacity: 0.9839; stroke: black; stroke-opacity: 1; stroke-width: 1" >
<title>Identity:0.9839 Organism:Streptomyces baarnensis JNZV01 Coordinates:26143 26517
Direction:+ Gen Id:fig|6666666.219512.peg.2999 Function L-ectoine synthase (EC 4.2.1.-)</title></polygon>
	<polygon points="399,92 399,108 408.37,108 410,100 408.37,92 " style="fill: rgb(162,132,136); fill-opacity: 0.9685; stroke: black; stroke-opacity: 1; stroke-width: 1" >
<title>Identity:0.9685 Organism:Streptomyces baarnensis JNZV01 Coordinates:26659 27804
Direction:+ Gen Id:fig|6666666.219512.peg.3000 Function Butyryl-CoA dehydrogenase (EC 1.3.99.2)</title></polygon>
	<polygon points="410,92 410,108 414.37,108 416,100 414.37,92 " style="fill: rgb(254,30,30); fill-opacity: 0.8791; stroke: black; stroke-opacity: 1; stroke-width: 1" >
<title>Identity:0.8791 Organism:Streptomyces baarnensis JNZV01 Coordinates:27801 28493
Direction:+ Gen Id:fig|6666666.219512.peg.3001 Function Phosphoribosylanthranilate isomerase (EC 5.3.1.24)</title></polygon>
	<polygon points="416,92 416,108 422.37,108 424,100 422.37,92 " style="fill: rgb(60,118,101); fill-opacity: 0.871; stroke: black; stroke-opacity: 1; stroke-width: 1" >
<title>Identity:0.871 Organism:Streptomyces baarnensis JNZV01 Coordinates:28542 29354
Direction:+ Gen Id:fig|6666666.219512.peg.3002 Function Indole-3-glycerol phosphate synthase (EC 4.1.1.48)</title></polygon>
	<polygon points="424,92 424,108 431.37,108 433,100 431.37,92 " style="fill: rgb(75,134,8); fill-opacity: 0.9329; stroke: black; stroke-opacity: 1; stroke-width: 1" >
<title>Identity:0.9329 Organism:Streptomyces baarnensis JNZV01 Coordinates:29351 30292
Direction:+ Gen Id:fig|6666666.219512.peg.3003 Function LanU-like protein</title></polygon>
	<polygon points="434,92 434,108 438.37,108 440,100 438.37,92 " style="fill: rgb(177,164,5); fill-opacity: 0.9323; stroke: black; stroke-opacity: 1; stroke-width: 1" >
<title>Identity:0.9323 Organism:Streptomyces baarnensis JNZV01 Coordinates:30443 31030
Direction:+ Gen Id:fig|6666666.219512.peg.3004 Function integral-membrane protein</title></polygon>
	<polygon points="442,92 442,108 452.37,108 454,100 452.37,92 " style="fill: rgb(17,154,170); fill-opacity: 0.943; stroke: black; stroke-opacity: 1; stroke-width: 1" >
<title>Identity:0.943 Organism:Streptomyces baarnensis JNZV01 Coordinates:31297 32562
Direction:+ Gen Id:fig|6666666.219512.peg.3005 Function Beta-ketoadipate enol-lactone hydrolase (EC 3.1.1.24)</title></polygon>
	<polygon points="454,92 454,108 459.37,108 461,100 459.37,92 " style="fill: rgb(9,181,207); fill-opacity: 0.9724; stroke: black; stroke-opacity: 1; stroke-width: 1" >
<title>Identity:0.9724 Organism:Streptomyces baarnensis JNZV01 Coordinates:32575 33228
Direction:+ Gen Id:fig|6666666.219512.peg.3006 Function FIG01121405: hypothetical protein</title></polygon>
	<polygon points="461,92 461,108 466.37,108 468,100 466.37,92 " style="fill: rgb(187,167,98); fill-opacity: 0.9846; stroke: black; stroke-opacity: 1; stroke-width: 1" >
<title>Identity:0.9846 Organism:Streptomyces baarnensis JNZV01 Coordinates:33271 34050
Direction:+ Gen Id:fig|6666666.219512.peg.3007 Function Exodeoxyribonuclease III (EC 3.1.11.2)</title></polygon>
	<polygon points="469,92 469,108 474.37,108 476,100 474.37,92 " style="fill: rgb(141,140,139); fill-opacity: 0.9677; stroke: black; stroke-opacity: 1; stroke-width: 1" >
<title>Identity:0.9677 Organism:Streptomyces baarnensis JNZV01 Coordinates:34138 34884
Direction:+ Gen Id:fig|6666666.219512.peg.3008 Function ATP-dependent Clp protease ATP-binding subunit ClpA</title></polygon>
	<polygon points="484,92 484,108 477.63,108 476,100 477.63,92 " style="fill: rgb(19,253,44); fill-opacity: 0.9421; stroke: black; stroke-opacity: 1; stroke-width: 1" >
<title>Identity:0.9421 Organism:Streptomyces baarnensis JNZV01 Coordinates:35697 34918
Direction:- Gen Id:fig|6666666.219512.peg.3009 Function Short-chain dehydrogenase/reductase SDR</title></polygon>
	<polygon points="485,92 485,108 487.37,108 489,100 487.37,92 " style="fill: rgb(252,243,163); fill-opacity: 0.9291; stroke: black; stroke-opacity: 1; stroke-width: 1" >
<title>Identity:0.9291 Organism:Streptomyces baarnensis JNZV01 Coordinates:35806 36246
Direction:+ Gen Id:fig|6666666.219512.peg.3010 Function FIG01120927: hypothetical protein</title></polygon>
	<text x="20" y="130">Genome 403967_5962:Streptomyces globisporus C-1027 NZ_CP013738    Gen:5962</text>
	<polygon points="320,142 320,158 317.63,158 316,150 317.63,142 " style="fill: rgb(140,232,50); fill-opacity: 1; stroke: black; stroke-opacity: 1; stroke-width: 1" >
<title>Identity:1 Organism:Streptomyces globisporus C-1027 NZ_CP013738 Coordinates:6561411 6560914
Direction:- Gen Id:fig|6666666.219583.peg.5952 Function transcriptional regulator, SARP family</title></polygon>
	<polygon points="328,142 328,158 337.37,158 339,150 337.37,142 " style="fill: rgb(120,130,12); fill-opacity: 1; stroke: black; stroke-opacity: 1; stroke-width: 1" >
<title>Identity:1 Organism:Streptomyces globisporus C-1027 NZ_CP013738 Coordinates:6562190 6563347
Direction:+ Gen Id:fig|6666666.219583.peg.5953 Function 8-amino-7-oxononanoate synthase (EC 2.3.1.47)</title></polygon>
	<polygon points="340,142 340,158 349.37,158 351,150 349.37,142 " style="fill: rgb(4,137,2); fill-opacity: 1; stroke: black; stroke-opacity: 1; stroke-width: 1" >
<title>Identity:1 Organism:Streptomyces globisporus C-1027 NZ_CP013738 Coordinates:6563441 6564700
Direction:+ Gen Id:fig|6666666.219583.peg.5954 Function 3-oxoacyl-[acyl-carrier-protein] synthase, KASII (EC 2.3.1.179)</title></polygon>
	<polygon points="351,142 351,158 357.37,158 359,150 357.37,142 " style="fill: rgb(67,151,96); fill-opacity: 1; stroke: black; stroke-opacity: 1; stroke-width: 1" >
<title>Identity:1 Organism:Streptomyces globisporus C-1027 NZ_CP013738 Coordinates:6564697 6565545
Direction:+ Gen Id:fig|6666666.219583.peg.5955 Function Conserved hypothetical protein (possible dehydratase)</title></polygon>
	<polygon points="359,142 359,158 371.37,158 373,150 371.37,142 " style="fill: rgb(192,187,181); fill-opacity: 1; stroke: black; stroke-opacity: 1; stroke-width: 1" >
<title>Identity:1 Organism:Streptomyces globisporus C-1027 NZ_CP013738 Coordinates:6565542 6567041
Direction:+ Gen Id:fig|6666666.219583.peg.5956 Function non-ribosomal peptide synthetase</title></polygon>
	<polygon points="374,142 374,158 375.37,158 377,150 375.37,142 " style="fill: rgb(191,126,54); fill-opacity: 1; stroke: black; stroke-opacity: 1; stroke-width: 1" >
<title>Identity:1 Organism:Streptomyces globisporus C-1027 NZ_CP013738 Coordinates:6567126 6567389
Direction:+ Gen Id:fig|6666666.219583.peg.5957 Function hypothetical protein</title></polygon>
	<polygon points="377,142 377,158 384.37,158 386,150 384.37,142 " style="fill: rgb(59,153,70); fill-opacity: 1; stroke: black; stroke-opacity: 1; stroke-width: 1" >
<title>Identity:1 Organism:Streptomyces globisporus C-1027 NZ_CP013738 Coordinates:6567393 6568409
Direction:+ Gen Id:fig|6666666.219583.peg.5958 Function Anthranilate phosphoribosyltransferase (EC 2.4.2.18)</title></polygon>
	<polygon points="386,142 386,158 392.37,158 394,150 392.37,142 " style="fill: rgb(122,244,247); fill-opacity: 1; stroke: black; stroke-opacity: 1; stroke-width: 1" >
<title>Identity:1 Organism:Streptomyces globisporus C-1027 NZ_CP013738 Coordinates:6568399 6569238
Direction:+ Gen Id:fig|6666666.219583.peg.5959 Function Tryptophan synthase alpha chain (EC 4.2.1.20)</title></polygon>
	<polygon points="394,142 394,158 396.37,158 398,150 396.37,142 " style="fill: rgb(198,102,204); fill-opacity: 1; stroke: black; stroke-opacity: 1; stroke-width: 1" >
<title>Identity:1 Organism:Streptomyces globisporus C-1027 NZ_CP013738 Coordinates:6569225 6569599
Direction:+ Gen Id:fig|6666666.219583.peg.5960 Function L-ectoine synthase (EC 4.2.1.-)</title></polygon>
	<polygon points="399,142 399,158 408.37,158 410,150 408.37,142 " style="fill: rgb(162,132,136); fill-opacity: 1; stroke: black; stroke-opacity: 1; stroke-width: 1" >
<title>Identity:1 Organism:Streptomyces globisporus C-1027 NZ_CP013738 Coordinates:6569730 6570875
Direction:+ Gen Id:fig|6666666.219583.peg.5961 Function Butyryl-CoA dehydrogenase (EC 1.3.99.2)</title></polygon>
	<polygon points="410,142 410,158 414.37,158 416,150 414.37,142 " style="fill: rgb(254,30,30); fill-opacity: 1; stroke: black; stroke-opacity: 1; stroke-width: 1" >
<title>Identity:1 Organism:Streptomyces globisporus C-1027 NZ_CP013738 Coordinates:6570872 6571573
Direction:+ Gen Id:fig|6666666.219583.peg.5962 Function Phosphoribosylanthranilate isomerase (EC 5.3.1.24)</title></polygon>
	<polygon points="417,142 417,158 422.37,158 424,150 422.37,142 " style="fill: rgb(60,118,101); fill-opacity: 1; stroke: black; stroke-opacity: 1; stroke-width: 1" >
<title>Identity:1 Organism:Streptomyces globisporus C-1027 NZ_CP013738 Coordinates:6571622 6572461
Direction:+ Gen Id:fig|6666666.219583.peg.5963 Function Indole-3-glycerol phosphate synthase (EC 4.1.1.48)</title></polygon>
	<polygon points="424,142 424,158 431.37,158 433,150 431.37,142 " style="fill: rgb(75,134,8); fill-opacity: 1; stroke: black; stroke-opacity: 1; stroke-width: 1" >
<title>Identity:1 Organism:Streptomyces globisporus C-1027 NZ_CP013738 Coordinates:6572458 6573399
Direction:+ Gen Id:fig|6666666.219583.peg.5964 Function LanU-like protein</title></polygon>
	<polygon points="435,142 435,158 438.37,158 440,150 438.37,142 " style="fill: rgb(177,164,5); fill-opacity: 1; stroke: black; stroke-opacity: 1; stroke-width: 1" >
<title>Identity:1 Organism:Streptomyces globisporus C-1027 NZ_CP013738 Coordinates:6573548 6574138
Direction:+ Gen Id:fig|6666666.219583.peg.5965 Function integral-membrane protein</title></polygon>
	<polygon points="442,142 442,158 453.37,158 455,150 453.37,142 " style="fill: rgb(17,154,170); fill-opacity: 1; stroke: black; stroke-opacity: 1; stroke-width: 1" >
<title>Identity:1 Organism:Streptomyces globisporus C-1027 NZ_CP013738 Coordinates:6574366 6575655
Direction:+ Gen Id:fig|6666666.219583.peg.5966 Function Beta-ketoadipate enol-lactone hydrolase (EC 3.1.1.24)</title></polygon>
	<polygon points="455,142 455,158 459.37,158 461,150 459.37,142 " style="fill: rgb(9,181,207); fill-opacity: 1; stroke: black; stroke-opacity: 1; stroke-width: 1" >
<title>Identity:1 Organism:Streptomyces globisporus C-1027 NZ_CP013738 Coordinates:6575668 6576321
Direction:+ Gen Id:fig|6666666.219583.peg.5967 Function FIG01121405: hypothetical protein</title></polygon>
	<polygon points="461,142 461,158 467.37,158 469,150 467.37,142 " style="fill: rgb(187,167,98); fill-opacity: 1; stroke: black; stroke-opacity: 1; stroke-width: 1" >
<title>Identity:1 Organism:Streptomyces globisporus C-1027 NZ_CP013738 Coordinates:6576364 6577143
Direction:+ Gen Id:fig|6666666.219583.peg.5968 Function Exodeoxyribonuclease III (EC 3.1.11.2)</title></polygon>
	<polygon points="469,142 469,158 474.37,158 476,150 474.37,142 " style="fill: rgb(141,140,139); fill-opacity: 1; stroke: black; stroke-opacity: 1; stroke-width: 1" >
<title>Identity:1 Organism:Streptomyces globisporus C-1027 NZ_CP013738 Coordinates:6577232 6577978
Direction:+ Gen Id:fig|6666666.219583.peg.5969 Function ATP-dependent Clp protease ATP-binding subunit ClpA</title></polygon>
	<polygon points="484,142 484,158 478.63,158 477,150 478.63,142 " style="fill: rgb(19,253,44); fill-opacity: 1; stroke: black; stroke-opacity: 1; stroke-width: 1" >
<title>Identity:1 Organism:Streptomyces globisporus C-1027 NZ_CP013738 Coordinates:6578793 6578014
Direction:- Gen Id:fig|6666666.219583.peg.5970 Function Short-chain dehydrogenase/reductase SDR</title></polygon>
	<polygon points="485,142 485,158 487.37,158 489,150 487.37,142 " style="fill: rgb(252,243,163); fill-opacity: 1; stroke: black; stroke-opacity: 1; stroke-width: 1" >
<title>Identity:1 Organism:Streptomyces globisporus C-1027 NZ_CP013738 Coordinates:6578918 6579343
Direction:+ Gen Id:fig|6666666.219583.peg.5971 Function FIG01120927: hypothetical protein</title></polygon>
	<text x="20" y="180">Genome 220619_6727:Streptomyces tsukubaensis NRRL18488 AJSZ01    Gen:6727</text>
	<polygon points="351,192 351,208 343.63,208 342,200 343.63,192 " style="fill: rgb(255,255,255); fill-opacity: 0; stroke: black; stroke-opacity: 1; stroke-width: 1" >
<title>Identity:0 Organism:Streptomyces tsukubaensis NRRL18488 AJSZ01 Coordinates:1002 61
Direction:- Gen Id:fig|6666666.104320.peg.6719 Function Transcriptional regulator, AraC family</title></polygon>
	<polygon points="352,192 352,208 358.37,208 360,200 358.37,192 " style="fill: rgb(255,255,255); fill-opacity: 0; stroke: black; stroke-opacity: 1; stroke-width: 1" >
<title>Identity:0 Organism:Streptomyces tsukubaensis NRRL18488 AJSZ01 Coordinates:1109 1918
Direction:+ Gen Id:fig|6666666.104320.peg.6720 Function Mlr3941 protein</title></polygon>
	<polygon points="361,192 361,208 372.37,208 374,200 372.37,192 " style="fill: rgb(192,187,181); fill-opacity: 0.4904; stroke: black; stroke-opacity: 1; stroke-width: 1" >
<title>Identity:0.4904 Organism:Streptomyces tsukubaensis NRRL18488 AJSZ01 Coordinates:2082 3494
Direction:+ Gen Id:fig|6666666.104320.peg.6721 Function non-ribosomal peptide synthetase</title></polygon>
	<polygon points="375,192 375,208 375.37,208 377,200 375.37,192 " style="fill: rgb(191,126,54); fill-opacity: 0.5; stroke: black; stroke-opacity: 1; stroke-width: 1" >
<title>Identity:0.5 Organism:Streptomyces tsukubaensis NRRL18488 AJSZ01 Coordinates:3544 3804
Direction:+ Gen Id:fig|6666666.104320.peg.6722 Function hypothetical protein</title></polygon>
	<polygon points="377,192 377,208 385.37,208 387,200 385.37,192 " style="fill: rgb(59,153,70); fill-opacity: 0.4727; stroke: black; stroke-opacity: 1; stroke-width: 1" >
<title>Identity:0.4727 Organism:Streptomyces tsukubaensis NRRL18488 AJSZ01 Coordinates:3810 4856
Direction:+ Gen Id:fig|6666666.104320.peg.6723 Function Anthranilate phosphoribosyltransferase (EC 2.4.2.18)</title></polygon>
	<polygon points="387,192 387,208 393.37,208 395,200 393.37,192 " style="fill: rgb(122,244,247); fill-opacity: 0.572; stroke: black; stroke-opacity: 1; stroke-width: 1" >
<title>Identity:0.572 Organism:Streptomyces tsukubaensis NRRL18488 AJSZ01 Coordinates:4853 5653
Direction:+ Gen Id:fig|6666666.104320.peg.6724 Function Tryptophan synthase alpha chain (EC 4.2.1.20)</title></polygon>
	<polygon points="395,192 395,208 397.37,208 399,200 397.37,192 " style="fill: rgb(198,102,204); fill-opacity: 0.7419; stroke: black; stroke-opacity: 1; stroke-width: 1" >
<title>Identity:0.7419 Organism:Streptomyces tsukubaensis NRRL18488 AJSZ01 Coordinates:5694 6068
Direction:+ Gen Id:fig|6666666.104320.peg.6725 Function L-ectoine synthase (EC 4.2.1.-)</title></polygon>
	<polygon points="399,192 399,208 408.37,208 410,200 408.37,192 " style="fill: rgb(162,132,136); fill-opacity: 0.5778; stroke: black; stroke-opacity: 1; stroke-width: 1" >
<title>Identity:0.5778 Organism:Streptomyces tsukubaensis NRRL18488 AJSZ01 Coordinates:6088 7227
Direction:+ Gen Id:fig|6666666.104320.peg.6726 Function Butyryl-CoA dehydrogenase (EC 1.3.99.2)</title></polygon>
	<polygon points="410,192 410,208 414.37,208 416,200 414.37,192 " style="fill: rgb(254,30,30); fill-opacity: 0.4798; stroke: black; stroke-opacity: 1; stroke-width: 1" >
<title>Identity:0.4798 Organism:Streptomyces tsukubaensis NRRL18488 AJSZ01 Coordinates:7224 7934
Direction:+ Gen Id:fig|6666666.104320.peg.6727 Function Phosphoribosylanthranilate isomerase (EC 5.3.1.24)</title></polygon>
	<polygon points="450,192 450,208 423.63,208 422,200 423.63,192 " style="fill: rgb(255,255,255); fill-opacity: 0; stroke: black; stroke-opacity: 1; stroke-width: 1" >
<title>Identity:0 Organism:Streptomyces tsukubaensis NRRL18488 AJSZ01 Coordinates:11540 8526
Direction:- Gen Id:fig|6666666.104320.peg.6728 Function Transcriptional regulator</title></polygon>
	<polygon points="471,192 471,208 454.63,208 453,200 454.63,192 " style="fill: rgb(140,232,50); fill-opacity: 0.5182; stroke: black; stroke-opacity: 1; stroke-width: 1" >
<title>Identity:0.5182 Organism:Streptomyces tsukubaensis NRRL18488 AJSZ01 Coordinates:13787 11811
Direction:- Gen Id:fig|6666666.104320.peg.6729 Function putative transcriptional regulator</title></polygon>
	<polygon points="475,192 475,208 475.37,208 477,200 475.37,192 " style="fill: rgb(255,255,255); fill-opacity: 0; stroke: black; stroke-opacity: 1; stroke-width: 1" >
<title>Identity:0 Organism:Streptomyces tsukubaensis NRRL18488 AJSZ01 Coordinates:14135 14407
Direction:+ Gen Id:fig|6666666.104320.peg.6730 Function hypothetical protein</title></polygon>
	<polygon points="477,192 477,208 485.37,208 487,200 485.37,192 " style="fill: rgb(255,255,255); fill-opacity: 0; stroke: black; stroke-opacity: 1; stroke-width: 1" >
<title>Identity:0 Organism:Streptomyces tsukubaensis NRRL18488 AJSZ01 Coordinates:14404 15423
Direction:+ Gen Id:fig|6666666.104320.peg.6731 Function 3-oxoacyl-[acyl-carrier-protein] synthase, KASIII (EC 2.3.1.180)</title></polygon>
	<polygon points="487,192 487,208 492.37,208 494,200 492.37,192 " style="fill: rgb(255,255,255); fill-opacity: 0; stroke: black; stroke-opacity: 1; stroke-width: 1" >
<title>Identity:0 Organism:Streptomyces tsukubaensis NRRL18488 AJSZ01 Coordinates:15420 16187
Direction:+ Gen Id:fig|6666666.104320.peg.6732 Function 3-oxoacyl-[acyl-carrier protein] reductase (EC 1.1.1.100)</title></polygon>
	<!-- 
	Generated using the Perl SVG Module V2.64
	by Ronan Oger
	Info: http://www.roitsystems.com/
 -->
</svg>