<?xml version="1.0" encoding="UTF-8" standalone="yes"?>
<!DOCTYPE svg PUBLIC "-//W3C//DTD SVG 1.0//EN" "http://www.w3.org/TR/2001/REC-SVG-20010904/DTD/svg10.dtd">
<svg height="100" onload="Init(evt)" onmousemove=" GetTrueCoords(evt); 
			ShowTooltip(evt, true)" onmouseout="ShowTooltip(evt, false)" width="1000" xmlns="http://www.w3.org/2000/svg" xmlns:svg="http://www.w3.org/2000/svg" xmlns:xlink="http://www.w3.org/1999/xlink">
	<script  />
	<polyline points="10,50 810,50 " style="fill-opacity: 0; stroke: rgb(250,123,23); stroke-opacity: 0.1" />
	<text x="20" y="30">Genome 403967_5962:Streptomyces globisporus C-1027 NZ_CP013738    Gen:5962</text>
	<polygon points="320,42 320,58 317.63,58 316,50 317.63,42 " style="fill: rgb(59,226,146); fill-opacity: 1; stroke: black; stroke-opacity: 1; stroke-width: 1" >
<title>Identity:1 Organism:Streptomyces globisporus C-1027 NZ_CP013738 Coordinates:6561411 6560914
Direction:- Gen Id:fig|6666666.219583.peg.5952 Function transcriptional regulator, SARP family</title></polygon>
	<polygon points="328,42 328,58 337.37,58 339,50 337.37,42 " style="fill: rgb(23,149,65); fill-opacity: 1; stroke: black; stroke-opacity: 1; stroke-width: 1" >
<title>Identity:1 Organism:Streptomyces globisporus C-1027 NZ_CP013738 Coordinates:6562190 6563347
Direction:+ Gen Id:fig|6666666.219583.peg.5953 Function 8-amino-7-oxononanoate synthase (EC 2.3.1.47)</title></polygon>
	<polygon points="340,42 340,58 349.37,58 351,50 349.37,42 " style="fill: rgb(61,106,40); fill-opacity: 1; stroke: black; stroke-opacity: 1; stroke-width: 1" >
<title>Identity:1 Organism:Streptomyces globisporus C-1027 NZ_CP013738 Coordinates:6563441 6564700
Direction:+ Gen Id:fig|6666666.219583.peg.5954 Function 3-oxoacyl-[acyl-carrier-protein] synthase, KASII (EC 2.3.1.179)</title></polygon>
	<polygon points="351,42 351,58 357.37,58 359,50 357.37,42 " style="fill: rgb(149,143,15); fill-opacity: 1; stroke: black; stroke-opacity: 1; stroke-width: 1" >
<title>Identity:1 Organism:Streptomyces globisporus C-1027 NZ_CP013738 Coordinates:6564697 6565545
Direction:+ Gen Id:fig|6666666.219583.peg.5955 Function Conserved hypothetical protein (possible dehydratase)</title></polygon>
	<polygon points="359,42 359,58 371.37,58 373,50 371.37,42 " style="fill: rgb(34,233,224); fill-opacity: 1; stroke: black; stroke-opacity: 1; stroke-width: 1" >
<title>Identity:1 Organism:Streptomyces globisporus C-1027 NZ_CP013738 Coordinates:6565542 6567041
Direction:+ Gen Id:fig|6666666.219583.peg.5956 Function non-ribosomal peptide synthetase</title></polygon>
	<polygon points="374,42 374,58 375.37,58 377,50 375.37,42 " style="fill: rgb(190,200,193); fill-opacity: 1; stroke: black; stroke-opacity: 1; stroke-width: 1" >
<title>Identity:1 Organism:Streptomyces globisporus C-1027 NZ_CP013738 Coordinates:6567126 6567389
Direction:+ Gen Id:fig|6666666.219583.peg.5957 Function hypothetical protein</title></polygon>
	<polygon points="377,42 377,58 384.37,58 386,50 384.37,42 " style="fill: rgb(173,249,92); fill-opacity: 1; stroke: black; stroke-opacity: 1; stroke-width: 1" >
<title>Identity:1 Organism:Streptomyces globisporus C-1027 NZ_CP013738 Coordinates:6567393 6568409
Direction:+ Gen Id:fig|6666666.219583.peg.5958 Function Anthranilate phosphoribosyltransferase (EC 2.4.2.18)</title></polygon>
	<polygon points="386,42 386,58 392.37,58 394,50 392.37,42 " style="fill: rgb(132,151,226); fill-opacity: 1; stroke: black; stroke-opacity: 1; stroke-width: 1" >
<title>Identity:1 Organism:Streptomyces globisporus C-1027 NZ_CP013738 Coordinates:6568399 6569238
Direction:+ Gen Id:fig|6666666.219583.peg.5959 Function Tryptophan synthase alpha chain (EC 4.2.1.20)</title></polygon>
	<polygon points="394,42 394,58 396.37,58 398,50 396.37,42 " style="fill: rgb(121,108,103); fill-opacity: 1; stroke: black; stroke-opacity: 1; stroke-width: 1" >
<title>Identity:1 Organism:Streptomyces globisporus C-1027 NZ_CP013738 Coordinates:6569225 6569599
Direction:+ Gen Id:fig|6666666.219583.peg.5960 Function L-ectoine synthase (EC 4.2.1.-)</title></polygon>
	<polygon points="399,42 399,58 408.37,58 410,50 408.37,42 " style="fill: rgb(97,140,76); fill-opacity: 1; stroke: black; stroke-opacity: 1; stroke-width: 1" >
<title>Identity:1 Organism:Streptomyces globisporus C-1027 NZ_CP013738 Coordinates:6569730 6570875
Direction:+ Gen Id:fig|6666666.219583.peg.5961 Function Butyryl-CoA dehydrogenase (EC 1.3.99.2)</title></polygon>
	<polygon points="410,42 410,58 414.37,58 416,50 414.37,42 " style="fill: rgb(254,30,30); fill-opacity: 1; stroke: black; stroke-opacity: 1; stroke-width: 1" >
<title>Identity:1 Organism:Streptomyces globisporus C-1027 NZ_CP013738 Coordinates:6570872 6571573
Direction:+ Gen Id:fig|6666666.219583.peg.5962 Function Phosphoribosylanthranilate isomerase (EC 5.3.1.24)</title></polygon>
	<polygon points="417,42 417,58 422.37,58 424,50 422.37,42 " style="fill: rgb(11,116,132); fill-opacity: 1; stroke: black; stroke-opacity: 1; stroke-width: 1" >
<title>Identity:1 Organism:Streptomyces globisporus C-1027 NZ_CP013738 Coordinates:6571622 6572461
Direction:+ Gen Id:fig|6666666.219583.peg.5963 Function Indole-3-glycerol phosphate synthase (EC 4.1.1.48)</title></polygon>
	<polygon points="424,42 424,58 431.37,58 433,50 431.37,42 " style="fill: rgb(243,101,189); fill-opacity: 1; stroke: black; stroke-opacity: 1; stroke-width: 1" >
<title>Identity:1 Organism:Streptomyces globisporus C-1027 NZ_CP013738 Coordinates:6572458 6573399
Direction:+ Gen Id:fig|6666666.219583.peg.5964 Function LanU-like protein</title></polygon>
	<polygon points="435,42 435,58 438.37,58 440,50 438.37,42 " style="fill: rgb(224,161,137); fill-opacity: 1; stroke: black; stroke-opacity: 1; stroke-width: 1" >
<title>Identity:1 Organism:Streptomyces globisporus C-1027 NZ_CP013738 Coordinates:6573548 6574138
Direction:+ Gen Id:fig|6666666.219583.peg.5965 Function integral-membrane protein</title></polygon>
	<polygon points="442,42 442,58 453.37,58 455,50 453.37,42 " style="fill: rgb(27,232,232); fill-opacity: 1; stroke: black; stroke-opacity: 1; stroke-width: 1" >
<title>Identity:1 Organism:Streptomyces globisporus C-1027 NZ_CP013738 Coordinates:6574366 6575655
Direction:+ Gen Id:fig|6666666.219583.peg.5966 Function Beta-ketoadipate enol-lactone hydrolase (EC 3.1.1.24)</title></polygon>
	<polygon points="455,42 455,58 459.37,58 461,50 459.37,42 " style="fill: rgb(211,194,184); fill-opacity: 1; stroke: black; stroke-opacity: 1; stroke-width: 1" >
<title>Identity:1 Organism:Streptomyces globisporus C-1027 NZ_CP013738 Coordinates:6575668 6576321
Direction:+ Gen Id:fig|6666666.219583.peg.5967 Function FIG01121405: hypothetical protein</title></polygon>
	<polygon points="461,42 461,58 467.37,58 469,50 467.37,42 " style="fill: rgb(85,125,34); fill-opacity: 1; stroke: black; stroke-opacity: 1; stroke-width: 1" >
<title>Identity:1 Organism:Streptomyces globisporus C-1027 NZ_CP013738 Coordinates:6576364 6577143
Direction:+ Gen Id:fig|6666666.219583.peg.5968 Function Exodeoxyribonuclease III (EC 3.1.11.2)</title></polygon>
	<polygon points="469,42 469,58 474.37,58 476,50 474.37,42 " style="fill: rgb(176,201,194); fill-opacity: 1; stroke: black; stroke-opacity: 1; stroke-width: 1" >
<title>Identity:1 Organism:Streptomyces globisporus C-1027 NZ_CP013738 Coordinates:6577232 6577978
Direction:+ Gen Id:fig|6666666.219583.peg.5969 Function ATP-dependent Clp protease ATP-binding subunit ClpA</title></polygon>
	<polygon points="484,42 484,58 478.63,58 477,50 478.63,42 " style="fill: rgb(212,224,110); fill-opacity: 1; stroke: black; stroke-opacity: 1; stroke-width: 1" >
<title>Identity:1 Organism:Streptomyces globisporus C-1027 NZ_CP013738 Coordinates:6578793 6578014
Direction:- Gen Id:fig|6666666.219583.peg.5970 Function Short-chain dehydrogenase/reductase SDR</title></polygon>
	<polygon points="485,42 485,58 487.37,58 489,50 487.37,42 " style="fill: rgb(96,197,236); fill-opacity: 1; stroke: black; stroke-opacity: 1; stroke-width: 1" >
<title>Identity:1 Organism:Streptomyces globisporus C-1027 NZ_CP013738 Coordinates:6578918 6579343
Direction:+ Gen Id:fig|6666666.219583.peg.5971 Function FIG01120927: hypothetical protein</title></polygon>
	<!-- 
	Generated using the Perl SVG Module V2.64
	by Ronan Oger
	Info: http://www.roitsystems.com/
 -->
</svg>