<?xml version="1.0" encoding="UTF-8" standalone="yes"?>
<!DOCTYPE svg PUBLIC "-//W3C//DTD SVG 1.0//EN" "http://www.w3.org/TR/2001/REC-SVG-20010904/DTD/svg10.dtd">
<svg height="100" onload="Init(evt)" onmousemove=" GetTrueCoords(evt); 
			ShowTooltip(evt, true)" onmouseout="ShowTooltip(evt, false)" width="1000" xmlns="http://www.w3.org/2000/svg" xmlns:svg="http://www.w3.org/2000/svg" xmlns:xlink="http://www.w3.org/1999/xlink">
	<script  />
	<polyline points="10,50 810,50 " style="fill-opacity: 0; stroke: rgb(250,123,23); stroke-opacity: 0.1" />
	<text x="20" y="30">Genome 404111_1036:Streptomyces griseolus JOFC01    Gen:1036</text>
	<polygon points="323,42 323,58 329.37,58 331,50 329.37,42 " style="fill: rgb(40,102,69); fill-opacity: 0.6486; stroke: black; stroke-opacity: 1; stroke-width: 1" >
<title>Identity:0.6486 Organism:Streptomyces griseolus JOFC01 Coordinates:18815 19615
Direction:+ Gen Id:fig|1909.6.peg.1026 Function hypothetical protein</title></polygon>
	<polygon points="337,42 337,58 333.63,58 332,50 333.63,42 " style="fill: rgb(21,187,158); fill-opacity: 0.7572; stroke: black; stroke-opacity: 1; stroke-width: 1" >
<title>Identity:0.7572 Organism:Streptomyces griseolus JOFC01 Coordinates:20306 19794
Direction:- Gen Id:fig|1909.6.peg.1027 Function Cys-tRNA(Pro) deacylase YbaK</title></polygon>
	<polygon points="345,42 345,58 338.63,58 337,50 338.63,42 " style="fill: rgb(183,122,196); fill-opacity: 0.6367; stroke: black; stroke-opacity: 1; stroke-width: 1" >
<title>Identity:0.6367 Organism:Streptomyces griseolus JOFC01 Coordinates:21108 20323
Direction:- Gen Id:fig|1909.6.peg.1028 Function Uncharacterized protein, similar to the N-terminal domain of Lon protease</title></polygon>
	<polygon points="355,42 355,58 346.63,58 345,50 346.63,42 " style="fill: rgb(255,255,255); fill-opacity: 0; stroke: black; stroke-opacity: 1; stroke-width: 1" >
<title>Identity:0 Organism:Streptomyces griseolus JOFC01 Coordinates:22142 21114
Direction:- Gen Id:fig|1909.6.peg.1029 Function putative membrane protein</title></polygon>
	<polygon points="372,42 372,58 358.63,58 357,50 358.63,42 " style="fill: rgb(193,245,222); fill-opacity: 0.661; stroke: black; stroke-opacity: 1; stroke-width: 1" >
<title>Identity:0.661 Organism:Streptomyces griseolus JOFC01 Coordinates:23974 22373
Direction:- Gen Id:fig|1909.6.peg.1030 Function putative membrane-associated oxidoreductase</title></polygon>
	<polygon points="373,42 373,58 384.37,58 386,50 384.37,42 " style="fill: rgb(220,159,16); fill-opacity: 0.8497; stroke: black; stroke-opacity: 1; stroke-width: 1" >
<title>Identity:0.8497 Organism:Streptomyces griseolus JOFC01 Coordinates:24135 25457
Direction:+ Gen Id:fig|1909.6.peg.1031 Function Histidinol dehydrogenase (EC 1.1.1.23)</title></polygon>
	<polygon points="386,42 386,58 394.37,58 396,50 394.37,42 " style="fill: rgb(11,105,55); fill-opacity: 0.8133; stroke: black; stroke-opacity: 1; stroke-width: 1" >
<title>Identity:0.8133 Organism:Streptomyces griseolus JOFC01 Coordinates:25454 26569
Direction:+ Gen Id:fig|1909.6.peg.1032 Function Histidinol-phosphate aminotransferase (EC 2.6.1.9)</title></polygon>
	<polygon points="396,42 396,58 400.37,58 402,50 400.37,42 " style="fill: rgb(240,159,122); fill-opacity: 0.9235; stroke: black; stroke-opacity: 1; stroke-width: 1" >
<title>Identity:0.9235 Organism:Streptomyces griseolus JOFC01 Coordinates:26566 27159
Direction:+ Gen Id:fig|1909.6.peg.1033 Function Imidazoleglycerol-phosphate dehydratase (EC 4.2.1.19)</title></polygon>
	<polygon points="402,42 402,58 401.37,58 403,50 401.37,42 " style="fill: rgb(211,131,231); fill-opacity: 0.6364; stroke: black; stroke-opacity: 1; stroke-width: 1" >
<title>Identity:0.6364 Organism:Streptomyces griseolus JOFC01 Coordinates:27156 27323
Direction:+ Gen Id:fig|1909.6.peg.1034 Function FIG01121868: hypothetical protein</title></polygon>
	<polygon points="403,42 403,58 408.37,58 410,50 408.37,42 " style="fill: rgb(148,197,18); fill-opacity: 0.8357; stroke: black; stroke-opacity: 1; stroke-width: 1" >
<title>Identity:0.8357 Organism:Streptomyces griseolus JOFC01 Coordinates:27334 27978
Direction:+ Gen Id:fig|1909.6.peg.1035 Function Imidazole glycerol phosphate synthase amidotransferase subunit (EC 2.4.2.-)</title></polygon>
	<polygon points="410,42 410,58 414.37,58 416,50 414.37,42 " style="fill: rgb(254,30,30); fill-opacity: 0.9292; stroke: black; stroke-opacity: 1; stroke-width: 1" >
<title>Identity:0.9292 Organism:Streptomyces griseolus JOFC01 Coordinates:27978 28703
Direction:+ Gen Id:fig|1909.6.peg.1036 Function Phosphoribosylformimino-5-aminoimidazole carboxamide ribotide isomerase (EC 5.3.1.16) / Acting phosphoribosylanthranilate isomerase (EC 5.3.1.24)</title></polygon>
	<polygon points="416,42 416,58 418.37,58 420,50 418.37,42 " style="fill: rgb(130,171,159); fill-opacity: 0.4846; stroke: black; stroke-opacity: 1; stroke-width: 1" >
<title>Identity:0.4846 Organism:Streptomyces griseolus JOFC01 Coordinates:28700 29098
Direction:+ Gen Id:fig|1909.6.peg.1037 Function Putative translation initiation inhibitor, yjgF family</title></polygon>
	<polygon points="420,42 420,58 425.37,58 427,50 425.37,42 " style="fill: rgb(202,152,56); fill-opacity: 0.8599; stroke: black; stroke-opacity: 1; stroke-width: 1" >
<title>Identity:0.8599 Organism:Streptomyces griseolus JOFC01 Coordinates:29095 29850
Direction:+ Gen Id:fig|1909.6.peg.1038 Function Imidazole glycerol phosphate synthase cyclase subunit (EC 4.1.3.-)</title></polygon>
	<polygon points="437,42 437,58 429.63,58 428,50 429.63,42 " style="fill: rgb(245,180,177); fill-opacity: 0.7905; stroke: black; stroke-opacity: 1; stroke-width: 1" >
<title>Identity:0.7905 Organism:Streptomyces griseolus JOFC01 Coordinates:30851 29976
Direction:- Gen Id:fig|1909.6.peg.1039 Function FIG01121452: hypothetical protein</title></polygon>
	<polygon points="439,42 439,58 451.37,58 453,50 451.37,42 " style="fill: rgb(161,201,226); fill-opacity: 0.8369; stroke: black; stroke-opacity: 1; stroke-width: 1" >
<title>Identity:0.8369 Organism:Streptomyces griseolus JOFC01 Coordinates:31085 32593
Direction:+ Gen Id:fig|1909.6.peg.1040 Function Anthranilate synthase, aminase component (EC 4.1.3.27)</title></polygon>
	<polygon points="453,42 453,58 457.37,58 459,50 457.37,42 " style="fill: rgb(255,255,255); fill-opacity: 0; stroke: black; stroke-opacity: 1; stroke-width: 1" >
<title>Identity:0 Organism:Streptomyces griseolus JOFC01 Coordinates:32593 33252
Direction:+ Gen Id:fig|1909.6.peg.1041 Function Tryptophan-associated membrane protein</title></polygon>
	<polygon points="460,42 460,58 460.37,58 462,50 460.37,42 " style="fill: rgb(255,255,255); fill-opacity: 0; stroke: black; stroke-opacity: 1; stroke-width: 1" >
<title>Identity:0 Organism:Streptomyces griseolus JOFC01 Coordinates:33347 33598
Direction:+ Gen Id:fig|1909.6.peg.1042 Function FIG01127290: hypothetical protein</title></polygon>
	<polygon points="463,42 463,58 466.37,58 468,50 466.37,42 " style="fill: rgb(255,255,255); fill-opacity: 0; stroke: black; stroke-opacity: 1; stroke-width: 1" >
<title>Identity:0 Organism:Streptomyces griseolus JOFC01 Coordinates:33700 34176
Direction:+ Gen Id:fig|1909.6.peg.1043 Function putative membrane protein</title></polygon>
	<polygon points="469,42 469,58 475.37,58 477,50 475.37,42 " style="fill: rgb(255,255,255); fill-opacity: 0; stroke: black; stroke-opacity: 1; stroke-width: 1" >
<title>Identity:0 Organism:Streptomyces griseolus JOFC01 Coordinates:34289 35098
Direction:+ Gen Id:fig|1909.6.peg.1044 Function Indole-3-glycerol phosphate synthase (EC 4.1.1.48)</title></polygon>
	<polygon points="477,42 477,58 477.37,58 479,50 477.37,42 " style="fill: rgb(255,255,255); fill-opacity: 0; stroke: black; stroke-opacity: 1; stroke-width: 1" >
<title>Identity:0 Organism:Streptomyces griseolus JOFC01 Coordinates:35107 35313
Direction:+ Gen Id:fig|1909.6.peg.1045 Function FIG01124547: hypothetical protein</title></polygon>
	<!-- 
	Generated using the Perl SVG Module V2.64
	by Ronan Oger
	Info: http://www.roitsystems.com/
 -->
</svg>