<?xml version="1.0" encoding="UTF-8" standalone="yes"?>
<!DOCTYPE svg PUBLIC "-//W3C//DTD SVG 1.0//EN" "http://www.w3.org/TR/2001/REC-SVG-20010904/DTD/svg10.dtd">
<svg height="400" onload="Init(evt)" onmousemove=" GetTrueCoords(evt); 
			ShowTooltip(evt, true)" onmouseout="ShowTooltip(evt, false)" width="1000" xmlns="http://www.w3.org/2000/svg" xmlns:svg="http://www.w3.org/2000/svg" xmlns:xlink="http://www.w3.org/1999/xlink">
	<script  />
	<polyline points="10,50 810,50 " style="fill-opacity: 0; stroke: rgb(250,123,23); stroke-opacity: 0.1" />
	<polyline points="10,100 810,100 " style="fill-opacity: 0; stroke: rgb(250,123,23); stroke-opacity: 0.1" />
	<polyline points="10,150 810,150 " style="fill-opacity: 0; stroke: rgb(250,123,23); stroke-opacity: 0.1" />
	<polyline points="10,200 810,200 " style="fill-opacity: 0; stroke: rgb(250,123,23); stroke-opacity: 0.1" />
	<text x="20" y="30">Genome 403886_3001:Streptomyces baarnensis JNZV01    Gen:3001</text>
	<polygon points="321,42 321,58 316.63,58 315,50 316.63,42 " style="fill: rgb(255,255,255); fill-opacity: 0; stroke: black; stroke-opacity: 1; stroke-width: 1" >
<title>Identity:0 Organism:Streptomyces baarnensis JNZV01 Coordinates:18368 17811
Direction:- Gen Id:fig|6666666.219512.peg.2991 Function transcriptional regulator, SARP family</title></polygon>
	<polygon points="328,42 328,58 336.37,58 338,50 336.37,42 " style="fill: rgb(255,255,255); fill-opacity: 0; stroke: black; stroke-opacity: 1; stroke-width: 1" >
<title>Identity:0 Organism:Streptomyces baarnensis JNZV01 Coordinates:19091 20248
Direction:+ Gen Id:fig|6666666.219512.peg.2992 Function 8-amino-7-oxononanoate synthase (EC 2.3.1.47)</title></polygon>
	<polygon points="339,42 339,58 349.37,58 351,50 349.37,42 " style="fill: rgb(255,255,255); fill-opacity: 0; stroke: black; stroke-opacity: 1; stroke-width: 1" >
<title>Identity:0 Organism:Streptomyces baarnensis JNZV01 Coordinates:20342 21601
Direction:+ Gen Id:fig|6666666.219512.peg.2993 Function 3-oxoacyl-[acyl-carrier-protein] synthase, KASII (EC 2.3.1.179)</title></polygon>
	<polygon points="351,42 351,58 357.37,58 359,50 357.37,42 " style="fill: rgb(255,255,255); fill-opacity: 0; stroke: black; stroke-opacity: 1; stroke-width: 1" >
<title>Identity:0 Organism:Streptomyces baarnensis JNZV01 Coordinates:21598 22446
Direction:+ Gen Id:fig|6666666.219512.peg.2994 Function putative enoyl-CoA hydratase</title></polygon>
	<polygon points="359,42 359,58 371.37,58 373,50 371.37,42 " style="fill: rgb(217,157,230); fill-opacity: 0.5039; stroke: black; stroke-opacity: 1; stroke-width: 1" >
<title>Identity:0.5039 Organism:Streptomyces baarnensis JNZV01 Coordinates:22443 23942
Direction:+ Gen Id:fig|6666666.219512.peg.2995 Function Siderophore biosynthesis non-ribosomal peptide synthetase modules</title></polygon>
	<polygon points="374,42 374,58 375.37,58 377,50 375.37,42 " style="fill: rgb(180,209,198); fill-opacity: 0.4714; stroke: black; stroke-opacity: 1; stroke-width: 1" >
<title>Identity:0.4714 Organism:Streptomyces baarnensis JNZV01 Coordinates:24038 24301
Direction:+ Gen Id:fig|6666666.219512.peg.2996 Function hypothetical protein</title></polygon>
	<polygon points="377,42 377,58 384.37,58 386,50 384.37,42 " style="fill: rgb(123,213,78); fill-opacity: 0.498; stroke: black; stroke-opacity: 1; stroke-width: 1" >
<title>Identity:0.498 Organism:Streptomyces baarnensis JNZV01 Coordinates:24305 25327
Direction:+ Gen Id:fig|6666666.219512.peg.2997 Function Anthranilate phosphoribosyltransferase (EC 2.4.2.18)</title></polygon>
	<polygon points="386,42 386,58 392.37,58 394,50 392.37,42 " style="fill: rgb(143,114,131); fill-opacity: 0.6; stroke: black; stroke-opacity: 1; stroke-width: 1" >
<title>Identity:0.6 Organism:Streptomyces baarnensis JNZV01 Coordinates:25308 26156
Direction:+ Gen Id:fig|6666666.219512.peg.2998 Function Tryptophan synthase alpha chain (EC 4.2.1.20)</title></polygon>
	<polygon points="394,42 394,58 395.37,58 397,50 395.37,42 " style="fill: rgb(4,149,239); fill-opacity: 0.6855; stroke: black; stroke-opacity: 1; stroke-width: 1" >
<title>Identity:0.6855 Organism:Streptomyces baarnensis JNZV01 Coordinates:26143 26517
Direction:+ Gen Id:fig|6666666.219512.peg.2999 Function L-ectoine synthase (EC 4.2.1.-)</title></polygon>
	<polygon points="399,42 399,58 408.37,58 410,50 408.37,42 " style="fill: rgb(165,184,177); fill-opacity: 0.6079; stroke: black; stroke-opacity: 1; stroke-width: 1" >
<title>Identity:0.6079 Organism:Streptomyces baarnensis JNZV01 Coordinates:26659 27804
Direction:+ Gen Id:fig|6666666.219512.peg.3000 Function Butyryl-CoA dehydrogenase (EC 1.3.99.2)</title></polygon>
	<polygon points="410,42 410,58 414.37,58 416,50 414.37,42 " style="fill: rgb(254,30,30); fill-opacity: 0.4405; stroke: black; stroke-opacity: 1; stroke-width: 1" >
<title>Identity:0.4405 Organism:Streptomyces baarnensis JNZV01 Coordinates:27801 28493
Direction:+ Gen Id:fig|6666666.219512.peg.3001 Function Phosphoribosylanthranilate isomerase (EC 5.3.1.24)</title></polygon>
	<polygon points="416,42 416,58 422.37,58 424,50 422.37,42 " style="fill: rgb(77,231,134); fill-opacity: 0.5778; stroke: black; stroke-opacity: 1; stroke-width: 1" >
<title>Identity:0.5778 Organism:Streptomyces baarnensis JNZV01 Coordinates:28542 29354
Direction:+ Gen Id:fig|6666666.219512.peg.3002 Function Indole-3-glycerol phosphate synthase (EC 4.1.1.48)</title></polygon>
	<polygon points="424,42 424,58 431.37,58 433,50 431.37,42 " style="fill: rgb(255,255,255); fill-opacity: 0; stroke: black; stroke-opacity: 1; stroke-width: 1" >
<title>Identity:0 Organism:Streptomyces baarnensis JNZV01 Coordinates:29351 30292
Direction:+ Gen Id:fig|6666666.219512.peg.3003 Function LanU-like protein</title></polygon>
	<polygon points="434,42 434,58 438.37,58 440,50 438.37,42 " style="fill: rgb(255,255,255); fill-opacity: 0; stroke: black; stroke-opacity: 1; stroke-width: 1" >
<title>Identity:0 Organism:Streptomyces baarnensis JNZV01 Coordinates:30443 31030
Direction:+ Gen Id:fig|6666666.219512.peg.3004 Function integral-membrane protein</title></polygon>
	<polygon points="442,42 442,58 452.37,58 454,50 452.37,42 " style="fill: rgb(255,255,255); fill-opacity: 0; stroke: black; stroke-opacity: 1; stroke-width: 1" >
<title>Identity:0 Organism:Streptomyces baarnensis JNZV01 Coordinates:31297 32562
Direction:+ Gen Id:fig|6666666.219512.peg.3005 Function Beta-ketoadipate enol-lactone hydrolase (EC 3.1.1.24)</title></polygon>
	<polygon points="454,42 454,58 459.37,58 461,50 459.37,42 " style="fill: rgb(255,255,255); fill-opacity: 0; stroke: black; stroke-opacity: 1; stroke-width: 1" >
<title>Identity:0 Organism:Streptomyces baarnensis JNZV01 Coordinates:32575 33228
Direction:+ Gen Id:fig|6666666.219512.peg.3006 Function FIG01121405: hypothetical protein</title></polygon>
	<polygon points="461,42 461,58 466.37,58 468,50 466.37,42 " style="fill: rgb(255,255,255); fill-opacity: 0; stroke: black; stroke-opacity: 1; stroke-width: 1" >
<title>Identity:0 Organism:Streptomyces baarnensis JNZV01 Coordinates:33271 34050
Direction:+ Gen Id:fig|6666666.219512.peg.3007 Function Exodeoxyribonuclease III (EC 3.1.11.2)</title></polygon>
	<polygon points="469,42 469,58 474.37,58 476,50 474.37,42 " style="fill: rgb(255,255,255); fill-opacity: 0; stroke: black; stroke-opacity: 1; stroke-width: 1" >
<title>Identity:0 Organism:Streptomyces baarnensis JNZV01 Coordinates:34138 34884
Direction:+ Gen Id:fig|6666666.219512.peg.3008 Function ATP-dependent Clp protease ATP-binding subunit ClpA</title></polygon>
	<polygon points="484,42 484,58 477.63,58 476,50 477.63,42 " style="fill: rgb(255,255,255); fill-opacity: 0; stroke: black; stroke-opacity: 1; stroke-width: 1" >
<title>Identity:0 Organism:Streptomyces baarnensis JNZV01 Coordinates:35697 34918
Direction:- Gen Id:fig|6666666.219512.peg.3009 Function Short-chain dehydrogenase/reductase SDR</title></polygon>
	<polygon points="485,42 485,58 487.37,58 489,50 487.37,42 " style="fill: rgb(255,255,255); fill-opacity: 0; stroke: black; stroke-opacity: 1; stroke-width: 1" >
<title>Identity:0 Organism:Streptomyces baarnensis JNZV01 Coordinates:35806 36246
Direction:+ Gen Id:fig|6666666.219512.peg.3010 Function FIG01120927: hypothetical protein</title></polygon>
	<text x="20" y="80">Genome 218787_281:Streptomyces clavuligerus ATCC 27064 ADGD01    Gen:281</text>
	<polygon points="483,92 483,108 487.37,108 489,100 487.37,92 " style="fill: rgb(52,207,55); fill-opacity: 1; stroke: black; stroke-opacity: 1; stroke-width: 1" >
<title>Identity:1 Organism:Streptomyces clavuligerus ATCC 27064 ADGD01 Coordinates:10980 10300
Direction:- Gen Id:fig|6666666.103162.peg.271 Function MoeX5</title></polygon>
	<polygon points="477,92 477,108 481.37,108 483,100 481.37,92 " style="fill: rgb(151,202,219); fill-opacity: 1; stroke: black; stroke-opacity: 1; stroke-width: 1" >
<title>Identity:1 Organism:Streptomyces clavuligerus ATCC 27064 ADGD01 Coordinates:11639 10977
Direction:- Gen Id:fig|6666666.103162.peg.272 Function ABC transporter, ATP-binding component</title></polygon>
	<polygon points="463,92 463,108 468.37,108 470,100 468.37,92 " style="fill: rgb(155,134,42); fill-opacity: 1; stroke: black; stroke-opacity: 1; stroke-width: 1" >
<title>Identity:1 Organism:Streptomyces clavuligerus ATCC 27064 ADGD01 Coordinates:13104 12415
Direction:- Gen Id:fig|6666666.103162.peg.273 Function Exonuclease SbcC</title></polygon>
	<polygon points="463,92 463,108 456.63,108 455,100 456.63,92 " style="fill: rgb(136,153,233); fill-opacity: 1; stroke: black; stroke-opacity: 1; stroke-width: 1" >
<title>Identity:1 Organism:Streptomyces clavuligerus ATCC 27064 ADGD01 Coordinates:13081 13968
Direction:+ Gen Id:fig|6666666.103162.peg.274 Function MoeGT5</title></polygon>
	<polygon points="454,92 454,108 447.63,108 446,100 447.63,92 " style="fill: rgb(79,170,38); fill-opacity: 1; stroke: black; stroke-opacity: 1; stroke-width: 1" >
<title>Identity:1 Organism:Streptomyces clavuligerus ATCC 27064 ADGD01 Coordinates:14080 14898
Direction:+ Gen Id:fig|6666666.103162.peg.275 Function FIG01134680: hypothetical protein</title></polygon>
	<polygon points="446,92 446,108 445.63,108 444,100 445.63,92 " style="fill: rgb(54,163,202); fill-opacity: 1; stroke: black; stroke-opacity: 1; stroke-width: 1" >
<title>Identity:1 Organism:Streptomyces clavuligerus ATCC 27064 ADGD01 Coordinates:14951 15115
Direction:+ Gen Id:fig|6666666.103162.peg.276 Function hypothetical protein</title></polygon>
	<polygon points="442,92 442,108 441.37,108 443,100 441.37,92 " style="fill: rgb(121,129,209); fill-opacity: 1; stroke: black; stroke-opacity: 1; stroke-width: 1" >
<title>Identity:1 Organism:Streptomyces clavuligerus ATCC 27064 ADGD01 Coordinates:15319 15185
Direction:- Gen Id:fig|6666666.103162.peg.277 Function hypothetical protein</title></polygon>
	<polygon points="426,92 426,108 435.37,108 437,100 435.37,92 " style="fill: rgb(245,136,155); fill-opacity: 1; stroke: black; stroke-opacity: 1; stroke-width: 1" >
<title>Identity:1 Organism:Streptomyces clavuligerus ATCC 27064 ADGD01 Coordinates:17089 15884
Direction:- Gen Id:fig|6666666.103162.peg.278 Function glutamate dehydrogenase (NAD(P)+)( EC:1.4.1.3 )</title></polygon>
	<polygon points="424,92 424,108 424.37,108 426,100 424.37,92 " style="fill: rgb(6,152,245); fill-opacity: 1; stroke: black; stroke-opacity: 1; stroke-width: 1" >
<title>Identity:1 Organism:Streptomyces clavuligerus ATCC 27064 ADGD01 Coordinates:17301 17086
Direction:- Gen Id:fig|6666666.103162.peg.279 Function MbtH-like protein</title></polygon>
	<polygon points="417,92 417,108 422.37,108 424,100 422.37,92 " style="fill: rgb(77,231,134); fill-opacity: 1; stroke: black; stroke-opacity: 1; stroke-width: 1" >
<title>Identity:1 Organism:Streptomyces clavuligerus ATCC 27064 ADGD01 Coordinates:17996 17298
Direction:- Gen Id:fig|6666666.103162.peg.280 Function Indole-3-glycerol phosphate synthase (EC 4.1.1.48)</title></polygon>
	<polygon points="410,92 410,108 415.37,108 417,100 415.37,92 " style="fill: rgb(254,30,30); fill-opacity: 1; stroke: black; stroke-opacity: 1; stroke-width: 1" >
<title>Identity:1 Organism:Streptomyces clavuligerus ATCC 27064 ADGD01 Coordinates:18691 17993
Direction:- Gen Id:fig|6666666.103162.peg.281 Function FIG01134443: hypothetical protein</title></polygon>
	<polygon points="400,92 400,108 408.37,108 410,100 408.37,92 " style="fill: rgb(165,184,177); fill-opacity: 1; stroke: black; stroke-opacity: 1; stroke-width: 1" >
<title>Identity:1 Organism:Streptomyces clavuligerus ATCC 27064 ADGD01 Coordinates:19840 18698
Direction:- Gen Id:fig|6666666.103162.peg.282 Function Butyryl-CoA dehydrogenase (EC 1.3.99.2)</title></polygon>
	<polygon points="396,92 396,108 398.37,108 400,100 398.37,92 " style="fill: rgb(4,149,239); fill-opacity: 1; stroke: black; stroke-opacity: 1; stroke-width: 1" >
<title>Identity:1 Organism:Streptomyces clavuligerus ATCC 27064 ADGD01 Coordinates:20228 19854
Direction:- Gen Id:fig|6666666.103162.peg.283 Function L-ectoine synthase (EC 4.2.1.-)</title></polygon>
	<polygon points="387,92 387,108 393.37,108 395,100 393.37,92 " style="fill: rgb(143,114,131); fill-opacity: 1; stroke: black; stroke-opacity: 1; stroke-width: 1" >
<title>Identity:1 Organism:Streptomyces clavuligerus ATCC 27064 ADGD01 Coordinates:21160 20360
Direction:- Gen Id:fig|6666666.103162.peg.284 Function Tryptophan synthase alpha chain (EC 4.2.1.20)</title></polygon>
	<polygon points="376,92 376,108 385.37,108 387,100 385.37,92 " style="fill: rgb(123,213,78); fill-opacity: 1; stroke: black; stroke-opacity: 1; stroke-width: 1" >
<title>Identity:1 Organism:Streptomyces clavuligerus ATCC 27064 ADGD01 Coordinates:22323 21157
Direction:- Gen Id:fig|6666666.103162.peg.285 Function Anthranilate phosphoribosyltransferase (EC 2.4.2.18)</title></polygon>
	<polygon points="373,92 373,108 374.37,108 376,100 374.37,92 " style="fill: rgb(180,209,198); fill-opacity: 1; stroke: black; stroke-opacity: 1; stroke-width: 1" >
<title>Identity:1 Organism:Streptomyces clavuligerus ATCC 27064 ADGD01 Coordinates:22673 22329
Direction:- Gen Id:fig|6666666.103162.peg.286 Function FIG01127693: hypothetical protein</title></polygon>
	<polygon points="357,92 357,108 371.37,108 373,100 371.37,92 " style="fill: rgb(217,157,230); fill-opacity: 1; stroke: black; stroke-opacity: 1; stroke-width: 1" >
<title>Identity:1 Organism:Streptomyces clavuligerus ATCC 27064 ADGD01 Coordinates:24346 22670
Direction:- Gen Id:fig|6666666.103162.peg.287 Function putative non-ribosomal peptide synthetase</title></polygon>
	<polygon points="353,92 353,108 337.63,108 336,100 337.63,92 " style="fill: rgb(211,199,85); fill-opacity: 1; stroke: black; stroke-opacity: 1; stroke-width: 1" >
<title>Identity:1 Organism:Streptomyces clavuligerus ATCC 27064 ADGD01 Coordinates:24844 26643
Direction:+ Gen Id:fig|6666666.103162.peg.288 Function Non-ribosomal peptide synthetase</title></polygon>
	<polygon points="336,92 336,108 296.63,108 295,100 296.63,92 " style="fill: rgb(147,177,87); fill-opacity: 1; stroke: black; stroke-opacity: 1; stroke-width: 1" >
<title>Identity:1 Organism:Streptomyces clavuligerus ATCC 27064 ADGD01 Coordinates:26640 30920
Direction:+ Gen Id:fig|6666666.103162.peg.289 Function FIG01135987: hypothetical protein</title></polygon>
	<polygon points="295,92 295,108 265.63,108 264,100 265.63,92 " style="fill: rgb(25,147,145); fill-opacity: 1; stroke: black; stroke-opacity: 1; stroke-width: 1" >
<title>Identity:1 Organism:Streptomyces clavuligerus ATCC 27064 ADGD01 Coordinates:30917 34261
Direction:+ Gen Id:fig|6666666.103162.peg.290 Function Siderophore biosynthesis non-ribosomal peptide synthetase modules</title></polygon>
	<text x="20" y="130">Genome 220619_6727:Streptomyces tsukubaensis NRRL18488 AJSZ01    Gen:6727</text>
	<polygon points="351,142 351,158 343.63,158 342,150 343.63,142 " style="fill: rgb(255,255,255); fill-opacity: 0; stroke: black; stroke-opacity: 1; stroke-width: 1" >
<title>Identity:0 Organism:Streptomyces tsukubaensis NRRL18488 AJSZ01 Coordinates:1002 61
Direction:- Gen Id:fig|6666666.104320.peg.6719 Function Transcriptional regulator, AraC family</title></polygon>
	<polygon points="352,142 352,158 358.37,158 360,150 358.37,142 " style="fill: rgb(255,255,255); fill-opacity: 0; stroke: black; stroke-opacity: 1; stroke-width: 1" >
<title>Identity:0 Organism:Streptomyces tsukubaensis NRRL18488 AJSZ01 Coordinates:1109 1918
Direction:+ Gen Id:fig|6666666.104320.peg.6720 Function Mlr3941 protein</title></polygon>
	<polygon points="361,142 361,158 372.37,158 374,150 372.37,142 " style="fill: rgb(217,157,230); fill-opacity: 0.6061; stroke: black; stroke-opacity: 1; stroke-width: 1" >
<title>Identity:0.6061 Organism:Streptomyces tsukubaensis NRRL18488 AJSZ01 Coordinates:2082 3494
Direction:+ Gen Id:fig|6666666.104320.peg.6721 Function non-ribosomal peptide synthetase</title></polygon>
	<polygon points="375,142 375,158 375.37,158 377,150 375.37,142 " style="fill: rgb(180,209,198); fill-opacity: 0.4875; stroke: black; stroke-opacity: 1; stroke-width: 1" >
<title>Identity:0.4875 Organism:Streptomyces tsukubaensis NRRL18488 AJSZ01 Coordinates:3544 3804
Direction:+ Gen Id:fig|6666666.104320.peg.6722 Function hypothetical protein</title></polygon>
	<polygon points="377,142 377,158 385.37,158 387,150 385.37,142 " style="fill: rgb(123,213,78); fill-opacity: 0.4417; stroke: black; stroke-opacity: 1; stroke-width: 1" >
<title>Identity:0.4417 Organism:Streptomyces tsukubaensis NRRL18488 AJSZ01 Coordinates:3810 4856
Direction:+ Gen Id:fig|6666666.104320.peg.6723 Function Anthranilate phosphoribosyltransferase (EC 2.4.2.18)</title></polygon>
	<polygon points="387,142 387,158 393.37,158 395,150 393.37,142 " style="fill: rgb(143,114,131); fill-opacity: 0.5709; stroke: black; stroke-opacity: 1; stroke-width: 1" >
<title>Identity:0.5709 Organism:Streptomyces tsukubaensis NRRL18488 AJSZ01 Coordinates:4853 5653
Direction:+ Gen Id:fig|6666666.104320.peg.6724 Function Tryptophan synthase alpha chain (EC 4.2.1.20)</title></polygon>
	<polygon points="395,142 395,158 397.37,158 399,150 397.37,142 " style="fill: rgb(4,149,239); fill-opacity: 0.7903; stroke: black; stroke-opacity: 1; stroke-width: 1" >
<title>Identity:0.7903 Organism:Streptomyces tsukubaensis NRRL18488 AJSZ01 Coordinates:5694 6068
Direction:+ Gen Id:fig|6666666.104320.peg.6725 Function L-ectoine synthase (EC 4.2.1.-)</title></polygon>
	<polygon points="399,142 399,158 408.37,158 410,150 408.37,142 " style="fill: rgb(165,184,177); fill-opacity: 0.5868; stroke: black; stroke-opacity: 1; stroke-width: 1" >
<title>Identity:0.5868 Organism:Streptomyces tsukubaensis NRRL18488 AJSZ01 Coordinates:6088 7227
Direction:+ Gen Id:fig|6666666.104320.peg.6726 Function Butyryl-CoA dehydrogenase (EC 1.3.99.2)</title></polygon>
	<polygon points="410,142 410,158 414.37,158 416,150 414.37,142 " style="fill: rgb(254,30,30); fill-opacity: 0.5702; stroke: black; stroke-opacity: 1; stroke-width: 1" >
<title>Identity:0.5702 Organism:Streptomyces tsukubaensis NRRL18488 AJSZ01 Coordinates:7224 7934
Direction:+ Gen Id:fig|6666666.104320.peg.6727 Function Phosphoribosylanthranilate isomerase (EC 5.3.1.24)</title></polygon>
	<polygon points="450,142 450,158 423.63,158 422,150 423.63,142 " style="fill: rgb(255,255,255); fill-opacity: 0; stroke: black; stroke-opacity: 1; stroke-width: 1" >
<title>Identity:0 Organism:Streptomyces tsukubaensis NRRL18488 AJSZ01 Coordinates:11540 8526
Direction:- Gen Id:fig|6666666.104320.peg.6728 Function Transcriptional regulator</title></polygon>
	<polygon points="471,142 471,158 454.63,158 453,150 454.63,142 " style="fill: rgb(255,255,255); fill-opacity: 0; stroke: black; stroke-opacity: 1; stroke-width: 1" >
<title>Identity:0 Organism:Streptomyces tsukubaensis NRRL18488 AJSZ01 Coordinates:13787 11811
Direction:- Gen Id:fig|6666666.104320.peg.6729 Function putative transcriptional regulator</title></polygon>
	<polygon points="475,142 475,158 475.37,158 477,150 475.37,142 " style="fill: rgb(255,255,255); fill-opacity: 0; stroke: black; stroke-opacity: 1; stroke-width: 1" >
<title>Identity:0 Organism:Streptomyces tsukubaensis NRRL18488 AJSZ01 Coordinates:14135 14407
Direction:+ Gen Id:fig|6666666.104320.peg.6730 Function hypothetical protein</title></polygon>
	<polygon points="477,142 477,158 485.37,158 487,150 485.37,142 " style="fill: rgb(255,255,255); fill-opacity: 0; stroke: black; stroke-opacity: 1; stroke-width: 1" >
<title>Identity:0 Organism:Streptomyces tsukubaensis NRRL18488 AJSZ01 Coordinates:14404 15423
Direction:+ Gen Id:fig|6666666.104320.peg.6731 Function 3-oxoacyl-[acyl-carrier-protein] synthase, KASIII (EC 2.3.1.180)</title></polygon>
	<polygon points="487,142 487,158 492.37,158 494,150 492.37,142 " style="fill: rgb(255,255,255); fill-opacity: 0; stroke: black; stroke-opacity: 1; stroke-width: 1" >
<title>Identity:0 Organism:Streptomyces tsukubaensis NRRL18488 AJSZ01 Coordinates:15420 16187
Direction:+ Gen Id:fig|6666666.104320.peg.6732 Function 3-oxoacyl-[acyl-carrier protein] reductase (EC 1.1.1.100)</title></polygon>
	<text x="20" y="180">Genome 403967_5962:Streptomyces globisporus C-1027 NZ_CP013738    Gen:5962</text>
	<polygon points="320,192 320,208 317.63,208 316,200 317.63,192 " style="fill: rgb(255,255,255); fill-opacity: 0; stroke: black; stroke-opacity: 1; stroke-width: 1" >
<title>Identity:0 Organism:Streptomyces globisporus C-1027 NZ_CP013738 Coordinates:6561411 6560914
Direction:- Gen Id:fig|6666666.219583.peg.5952 Function transcriptional regulator, SARP family</title></polygon>
	<polygon points="328,192 328,208 337.37,208 339,200 337.37,192 " style="fill: rgb(255,255,255); fill-opacity: 0; stroke: black; stroke-opacity: 1; stroke-width: 1" >
<title>Identity:0 Organism:Streptomyces globisporus C-1027 NZ_CP013738 Coordinates:6562190 6563347
Direction:+ Gen Id:fig|6666666.219583.peg.5953 Function 8-amino-7-oxononanoate synthase (EC 2.3.1.47)</title></polygon>
	<polygon points="340,192 340,208 349.37,208 351,200 349.37,192 " style="fill: rgb(255,255,255); fill-opacity: 0; stroke: black; stroke-opacity: 1; stroke-width: 1" >
<title>Identity:0 Organism:Streptomyces globisporus C-1027 NZ_CP013738 Coordinates:6563441 6564700
Direction:+ Gen Id:fig|6666666.219583.peg.5954 Function 3-oxoacyl-[acyl-carrier-protein] synthase, KASII (EC 2.3.1.179)</title></polygon>
	<polygon points="351,192 351,208 357.37,208 359,200 357.37,192 " style="fill: rgb(255,255,255); fill-opacity: 0; stroke: black; stroke-opacity: 1; stroke-width: 1" >
<title>Identity:0 Organism:Streptomyces globisporus C-1027 NZ_CP013738 Coordinates:6564697 6565545
Direction:+ Gen Id:fig|6666666.219583.peg.5955 Function Conserved hypothetical protein (possible dehydratase)</title></polygon>
	<polygon points="359,192 359,208 371.37,208 373,200 371.37,192 " style="fill: rgb(217,157,230); fill-opacity: 0.4894; stroke: black; stroke-opacity: 1; stroke-width: 1" >
<title>Identity:0.4894 Organism:Streptomyces globisporus C-1027 NZ_CP013738 Coordinates:6565542 6567041
Direction:+ Gen Id:fig|6666666.219583.peg.5956 Function non-ribosomal peptide synthetase</title></polygon>
	<polygon points="374,192 374,208 375.37,208 377,200 375.37,192 " style="fill: rgb(180,209,198); fill-opacity: 0.4198; stroke: black; stroke-opacity: 1; stroke-width: 1" >
<title>Identity:0.4198 Organism:Streptomyces globisporus C-1027 NZ_CP013738 Coordinates:6567126 6567389
Direction:+ Gen Id:fig|6666666.219583.peg.5957 Function hypothetical protein</title></polygon>
	<polygon points="377,192 377,208 384.37,208 386,200 384.37,192 " style="fill: rgb(123,213,78); fill-opacity: 0.4959; stroke: black; stroke-opacity: 1; stroke-width: 1" >
<title>Identity:0.4959 Organism:Streptomyces globisporus C-1027 NZ_CP013738 Coordinates:6567393 6568409
Direction:+ Gen Id:fig|6666666.219583.peg.5958 Function Anthranilate phosphoribosyltransferase (EC 2.4.2.18)</title></polygon>
	<polygon points="386,192 386,208 392.37,208 394,200 392.37,192 " style="fill: rgb(143,114,131); fill-opacity: 0.5992; stroke: black; stroke-opacity: 1; stroke-width: 1" >
<title>Identity:0.5992 Organism:Streptomyces globisporus C-1027 NZ_CP013738 Coordinates:6568399 6569238
Direction:+ Gen Id:fig|6666666.219583.peg.5959 Function Tryptophan synthase alpha chain (EC 4.2.1.20)</title></polygon>
	<polygon points="394,192 394,208 396.37,208 398,200 396.37,192 " style="fill: rgb(4,149,239); fill-opacity: 0.6935; stroke: black; stroke-opacity: 1; stroke-width: 1" >
<title>Identity:0.6935 Organism:Streptomyces globisporus C-1027 NZ_CP013738 Coordinates:6569225 6569599
Direction:+ Gen Id:fig|6666666.219583.peg.5960 Function L-ectoine synthase (EC 4.2.1.-)</title></polygon>
	<polygon points="399,192 399,208 408.37,208 410,200 408.37,192 " style="fill: rgb(165,184,177); fill-opacity: 0.6132; stroke: black; stroke-opacity: 1; stroke-width: 1" >
<title>Identity:0.6132 Organism:Streptomyces globisporus C-1027 NZ_CP013738 Coordinates:6569730 6570875
Direction:+ Gen Id:fig|6666666.219583.peg.5961 Function Butyryl-CoA dehydrogenase (EC 1.3.99.2)</title></polygon>
	<polygon points="410,192 410,208 414.37,208 416,200 414.37,192 " style="fill: rgb(254,30,30); fill-opacity: 0.4525; stroke: black; stroke-opacity: 1; stroke-width: 1" >
<title>Identity:0.4525 Organism:Streptomyces globisporus C-1027 NZ_CP013738 Coordinates:6570872 6571573
Direction:+ Gen Id:fig|6666666.219583.peg.5962 Function Phosphoribosylanthranilate isomerase (EC 5.3.1.24)</title></polygon>
	<polygon points="417,192 417,208 422.37,208 424,200 422.37,192 " style="fill: rgb(77,231,134); fill-opacity: 0.5778; stroke: black; stroke-opacity: 1; stroke-width: 1" >
<title>Identity:0.5778 Organism:Streptomyces globisporus C-1027 NZ_CP013738 Coordinates:6571622 6572461
Direction:+ Gen Id:fig|6666666.219583.peg.5963 Function Indole-3-glycerol phosphate synthase (EC 4.1.1.48)</title></polygon>
	<polygon points="424,192 424,208 431.37,208 433,200 431.37,192 " style="fill: rgb(255,255,255); fill-opacity: 0; stroke: black; stroke-opacity: 1; stroke-width: 1" >
<title>Identity:0 Organism:Streptomyces globisporus C-1027 NZ_CP013738 Coordinates:6572458 6573399
Direction:+ Gen Id:fig|6666666.219583.peg.5964 Function LanU-like protein</title></polygon>
	<polygon points="435,192 435,208 438.37,208 440,200 438.37,192 " style="fill: rgb(255,255,255); fill-opacity: 0; stroke: black; stroke-opacity: 1; stroke-width: 1" >
<title>Identity:0 Organism:Streptomyces globisporus C-1027 NZ_CP013738 Coordinates:6573548 6574138
Direction:+ Gen Id:fig|6666666.219583.peg.5965 Function integral-membrane protein</title></polygon>
	<polygon points="442,192 442,208 453.37,208 455,200 453.37,192 " style="fill: rgb(255,255,255); fill-opacity: 0; stroke: black; stroke-opacity: 1; stroke-width: 1" >
<title>Identity:0 Organism:Streptomyces globisporus C-1027 NZ_CP013738 Coordinates:6574366 6575655
Direction:+ Gen Id:fig|6666666.219583.peg.5966 Function Beta-ketoadipate enol-lactone hydrolase (EC 3.1.1.24)</title></polygon>
	<polygon points="455,192 455,208 459.37,208 461,200 459.37,192 " style="fill: rgb(255,255,255); fill-opacity: 0; stroke: black; stroke-opacity: 1; stroke-width: 1" >
<title>Identity:0 Organism:Streptomyces globisporus C-1027 NZ_CP013738 Coordinates:6575668 6576321
Direction:+ Gen Id:fig|6666666.219583.peg.5967 Function FIG01121405: hypothetical protein</title></polygon>
	<polygon points="461,192 461,208 467.37,208 469,200 467.37,192 " style="fill: rgb(255,255,255); fill-opacity: 0; stroke: black; stroke-opacity: 1; stroke-width: 1" >
<title>Identity:0 Organism:Streptomyces globisporus C-1027 NZ_CP013738 Coordinates:6576364 6577143
Direction:+ Gen Id:fig|6666666.219583.peg.5968 Function Exodeoxyribonuclease III (EC 3.1.11.2)</title></polygon>
	<polygon points="469,192 469,208 474.37,208 476,200 474.37,192 " style="fill: rgb(255,255,255); fill-opacity: 0; stroke: black; stroke-opacity: 1; stroke-width: 1" >
<title>Identity:0 Organism:Streptomyces globisporus C-1027 NZ_CP013738 Coordinates:6577232 6577978
Direction:+ Gen Id:fig|6666666.219583.peg.5969 Function ATP-dependent Clp protease ATP-binding subunit ClpA</title></polygon>
	<polygon points="484,192 484,208 478.63,208 477,200 478.63,192 " style="fill: rgb(255,255,255); fill-opacity: 0; stroke: black; stroke-opacity: 1; stroke-width: 1" >
<title>Identity:0 Organism:Streptomyces globisporus C-1027 NZ_CP013738 Coordinates:6578793 6578014
Direction:- Gen Id:fig|6666666.219583.peg.5970 Function Short-chain dehydrogenase/reductase SDR</title></polygon>
	<polygon points="485,192 485,208 487.37,208 489,200 487.37,192 " style="fill: rgb(255,255,255); fill-opacity: 0; stroke: black; stroke-opacity: 1; stroke-width: 1" >
<title>Identity:0 Organism:Streptomyces globisporus C-1027 NZ_CP013738 Coordinates:6578918 6579343
Direction:+ Gen Id:fig|6666666.219583.peg.5971 Function FIG01120927: hypothetical protein</title></polygon>
	<!-- 
	Generated using the Perl SVG Module V2.64
	by Ronan Oger
	Info: http://www.roitsystems.com/
 -->
</svg>