<?xml version="1.0" encoding="utf-8" standalone="no"?>
<!DOCTYPE svg PUBLIC "-//W3C//DTD SVG 1.1//EN" 
"http://www.w3.org/Graphics/SVG/1.1/DTD/svg11.dtd">
<svg width="600px" height="612px" viewBox="0 0 600 612"
xmlns="http://www.w3.org/2000/svg" version="1.1">
<rect x="0" y="0" width="600" height="612" fill="none" stroke="rgb(192,192,192)" stroke-width="1"/>
<text x="183" y="608" font-family="serif" font-size="12" fill="rgb(0,0,0)" textLength="276.00">Clavibacter_michiganensis_322_org_645144</text>
<text x="249" y="513" font-family="serif" font-size="12" fill="rgb(0,0,0)" textLength="315.00">Clavibacter_michiganensis_AeR137_2_org_614141</text>
<text x="276" y="417" font-family="serif" font-size="12" fill="rgb(0,0,0)" textLength="315.00">Clavibacter_michiganensis_AeR100_2_org_614133</text>
<text x="189" y="322" font-family="serif" font-size="12" fill="rgb(0,0,0)" textLength="286.00">Clavibacter_michiganensis_RS6E_org_594242</text>
<text x="183" y="226" font-family="serif" font-size="12" fill="rgb(0,0,0)" textLength="286.00">Clavibacter_michiganensis_RS6C_org_594099</text>
<text x="191" y="131" font-family="serif" font-size="12" fill="rgb(0,0,0)" textLength="278.00">clavibacter_michiganensis_aer1_org_151744</text>
<text x="212" y="35" font-family="serif" font-size="12" fill="rgb(0,0,0)" textLength="287.00">Clavibacter_michiganensis_RA1B_org_594133</text>
<line x1="181" y1="508" x2="246" y2="508" style="stroke:rgb(0,0,0);stroke-width:1;stroke-linecap:round" />
<line x1="181" y1="412" x2="273" y2="412" style="stroke:rgb(0,0,0);stroke-width:1;stroke-linecap:round" />
<line x1="181" y1="508" x2="181" y2="412" style="stroke:rgb(0,0,0);stroke-width:1;stroke-linecap:round" />
<line x1="179" y1="317" x2="186" y2="317" style="stroke:rgb(0,0,0);stroke-width:1;stroke-linecap:round" />
<line x1="179" y1="221" x2="180" y2="221" style="stroke:rgb(0,0,0);stroke-width:1;stroke-linecap:round" />
<line x1="179" y1="317" x2="179" y2="221" style="stroke:rgb(0,0,0);stroke-width:1;stroke-linecap:round" />
<line x1="177" y1="460" x2="181" y2="460" style="stroke:rgb(0,0,0);stroke-width:1;stroke-linecap:round" />
<line x1="177" y1="269" x2="179" y2="269" style="stroke:rgb(0,0,0);stroke-width:1;stroke-linecap:round" />
<line x1="177" y1="460" x2="177" y2="269" style="stroke:rgb(0,0,0);stroke-width:1;stroke-linecap:round" />
<line x1="168" y1="603" x2="181" y2="603" style="stroke:rgb(0,0,0);stroke-width:1;stroke-linecap:round" />
<line x1="168" y1="364" x2="177" y2="364" style="stroke:rgb(0,0,0);stroke-width:1;stroke-linecap:round" />
<line x1="168" y1="603" x2="168" y2="364" style="stroke:rgb(0,0,0);stroke-width:1;stroke-linecap:round" />
<line x1="166" y1="484" x2="168" y2="484" style="stroke:rgb(0,0,0);stroke-width:1;stroke-linecap:round" />
<line x1="166" y1="126" x2="188" y2="126" style="stroke:rgb(0,0,0);stroke-width:1;stroke-linecap:round" />
<line x1="166" y1="484" x2="166" y2="126" style="stroke:rgb(0,0,0);stroke-width:1;stroke-linecap:round" />
<line x1="12" y1="305" x2="166" y2="305" style="stroke:rgb(0,0,0);stroke-width:1;stroke-linecap:round" />
<line x1="12" y1="30" x2="209" y2="30" style="stroke:rgb(0,0,0);stroke-width:1;stroke-linecap:round" />
<line x1="12" y1="305" x2="12" y2="30" style="stroke:rgb(0,0,0);stroke-width:1;stroke-linecap:round" />
<line x1="514" y1="13" x2="570" y2="13" style="stroke:rgb(0,0,0);stroke-width:1;stroke-linecap:round" />
<line x1="514" y1="17" x2="514" y2="9" style="stroke:rgb(0,0,0);stroke-width:1;stroke-linecap:round" />
<line x1="570" y1="17" x2="570" y2="9" style="stroke:rgb(0,0,0);stroke-width:1;stroke-linecap:round" />
<text x="528" y="11" font-family="serif" font-size="12" fill="rgb(0,0,0)" textLength="28.00">0.01</text>
</svg>
