<?xml version="1.0" encoding="UTF-8" standalone="yes"?>
<!DOCTYPE svg PUBLIC "-//W3C//DTD SVG 1.0//EN" "http://www.w3.org/TR/2001/REC-SVG-20010904/DTD/svg10.dtd">
<svg height="200" onload="Init(evt)" onmousemove=" GetTrueCoords(evt); 
			ShowTooltip(evt, true)" onmouseout="ShowTooltip(evt, false)" width="1000" xmlns="http://www.w3.org/2000/svg" xmlns:svg="http://www.w3.org/2000/svg" xmlns:xlink="http://www.w3.org/1999/xlink">
	<script  />
	<polyline points="10,50 810,50 " style="fill-opacity: 0; stroke: rgb(250,123,23); stroke-opacity: 0.1" />
	<polyline points="10,100 810,100 " style="fill-opacity: 0; stroke: rgb(250,123,23); stroke-opacity: 0.1" />
	<text x="20" y="30">Genome 218056_4194:Streptomyces bikiniensis JNWL01    Gen:4194</text>
	<polygon points="529,42 529,58 537.37,58 539,50 537.37,42 " style="fill: rgb(255,255,255); fill-opacity: 0; stroke: black; stroke-opacity: 1; stroke-width: 1" >
<title>Identity:0 Organism:Streptomyces bikiniensis JNWL01 Coordinates:233184 232096
Direction:- Gen Id:fig|6666666.102775.peg.4184 Function FIG01128404: hypothetical protein</title></polygon>
	<polygon points="523,42 523,58 527.37,58 529,50 527.37,42 " style="fill: rgb(255,255,255); fill-opacity: 0; stroke: black; stroke-opacity: 1; stroke-width: 1" >
<title>Identity:0 Organism:Streptomyces bikiniensis JNWL01 Coordinates:233834 233181
Direction:- Gen Id:fig|6666666.102775.peg.4185 Function Two-component response regulator</title></polygon>
	<polygon points="521,42 521,58 508.63,58 507,50 508.63,42 " style="fill: rgb(255,255,255); fill-opacity: 0; stroke: black; stroke-opacity: 1; stroke-width: 1" >
<title>Identity:0 Organism:Streptomyces bikiniensis JNWL01 Coordinates:233962 235539
Direction:+ Gen Id:fig|6666666.102775.peg.4186 Function Methionyl-tRNA synthetase (EC 6.1.1.10)</title></polygon>
	<polygon points="496,42 496,58 503.37,58 505,50 503.37,42 " style="fill: rgb(255,255,255); fill-opacity: 0; stroke: black; stroke-opacity: 1; stroke-width: 1" >
<title>Identity:0 Organism:Streptomyces bikiniensis JNWL01 Coordinates:236688 235687
Direction:- Gen Id:fig|6666666.102775.peg.4187 Function Ribose-phosphate pyrophosphokinase (EC 2.7.6.1)</title></polygon>
	<polygon points="486,42 486,58 494.37,58 496,50 494.37,42 " style="fill: rgb(255,255,255); fill-opacity: 0; stroke: black; stroke-opacity: 1; stroke-width: 1" >
<title>Identity:0 Organism:Streptomyces bikiniensis JNWL01 Coordinates:237755 236685
Direction:- Gen Id:fig|6666666.102775.peg.4188 Function NADH:flavin oxidoreductase/NADH oxidase</title></polygon>
	<polygon points="477,42 477,58 483.37,58 485,50 483.37,42 " style="fill: rgb(51,140,35); fill-opacity: 0.7245; stroke: black; stroke-opacity: 1; stroke-width: 1" >
<title>Identity:0.7245 Organism:Streptomyces bikiniensis JNWL01 Coordinates:238728 237796
Direction:- Gen Id:fig|6666666.102775.peg.4189 Function Indigoidine synthase A-like protein, uncharacterized enzyme involved in pigment biosynthesis</title></polygon>
	<polygon points="474,42 474,58 475.37,58 477,50 475.37,42 " style="fill: rgb(255,255,255); fill-opacity: 0; stroke: black; stroke-opacity: 1; stroke-width: 1" >
<title>Identity:0 Organism:Streptomyces bikiniensis JNWL01 Coordinates:238979 238725
Direction:- Gen Id:fig|6666666.102775.peg.4190 Function hypothetical protein</title></polygon>
	<polygon points="438,42 438,58 471.37,58 473,50 471.37,42 " style="fill: rgb(199,111,66); fill-opacity: 0.5425; stroke: black; stroke-opacity: 1; stroke-width: 1" >
<title>Identity:0.5425 Organism:Streptomyces bikiniensis JNWL01 Coordinates:242881 239060
Direction:- Gen Id:fig|6666666.102775.peg.4191 Function Peptide synthetase</title></polygon>
	<polygon points="428,42 428,58 435.37,58 437,50 435.37,42 " style="fill: rgb(222,228,210); fill-opacity: 0.6491; stroke: black; stroke-opacity: 1; stroke-width: 1" >
<title>Identity:0.6491 Organism:Streptomyces bikiniensis JNWL01 Coordinates:243848 242940
Direction:- Gen Id:fig|6666666.102775.peg.4192 Function Permease of the drug/metabolite transporter (DMT) superfamily</title></polygon>
	<polygon points="422,42 422,58 426.37,58 428,50 426.37,42 " style="fill: rgb(223,144,105); fill-opacity: 0.6232; stroke: black; stroke-opacity: 1; stroke-width: 1" >
<title>Identity:0.6232 Organism:Streptomyces bikiniensis JNWL01 Coordinates:244510 243845
Direction:- Gen Id:fig|6666666.102775.peg.4193 Function Uracil phosphoribosyltransferase (EC 2.4.2.9)</title></polygon>
	<polygon points="410,42 410,58 415.37,58 417,50 415.37,42 " style="fill: rgb(254,30,30); fill-opacity: 0.6697; stroke: black; stroke-opacity: 1; stroke-width: 1" >
<title>Identity:0.6697 Organism:Streptomyces bikiniensis JNWL01 Coordinates:245752 245069
Direction:- Gen Id:fig|6666666.102775.peg.4194 Function Phosphoribosylanthranilate isomerase (EC 5.3.1.24)</title></polygon>
	<polygon points="404,42 404,58 408.37,58 410,50 408.37,42 " style="fill: rgb(255,255,255); fill-opacity: 0; stroke: black; stroke-opacity: 1; stroke-width: 1" >
<title>Identity:0 Organism:Streptomyces bikiniensis JNWL01 Coordinates:246488 245826
Direction:- Gen Id:fig|6666666.102775.peg.4195 Function NADH dehydrogenase (EC 1.6.99.3)</title></polygon>
	<polygon points="402,42 402,58 399.63,58 398,50 399.63,42 " style="fill: rgb(255,255,255); fill-opacity: 0; stroke: black; stroke-opacity: 1; stroke-width: 1" >
<title>Identity:0 Organism:Streptomyces bikiniensis JNWL01 Coordinates:246616 247104
Direction:+ Gen Id:fig|6666666.102775.peg.4196 Function Transcriptional regulator, MarR family</title></polygon>
	<polygon points="397,42 397,58 395.63,58 394,50 395.63,42 " style="fill: rgb(255,255,255); fill-opacity: 0; stroke: black; stroke-opacity: 1; stroke-width: 1" >
<title>Identity:0 Organism:Streptomyces bikiniensis JNWL01 Coordinates:247151 247486
Direction:+ Gen Id:fig|6666666.102775.peg.4197 Function hypothetical protein</title></polygon>
	<polygon points="394,42 394,58 389.63,58 388,50 389.63,42 " style="fill: rgb(255,255,255); fill-opacity: 0; stroke: black; stroke-opacity: 1; stroke-width: 1" >
<title>Identity:0 Organism:Streptomyces bikiniensis JNWL01 Coordinates:247509 248171
Direction:+ Gen Id:fig|6666666.102775.peg.4198 Function hypothetical protein</title></polygon>
	<polygon points="385,42 385,58 379.63,58 378,50 379.63,42 " style="fill: rgb(255,255,255); fill-opacity: 0; stroke: black; stroke-opacity: 1; stroke-width: 1" >
<title>Identity:0 Organism:Streptomyces bikiniensis JNWL01 Coordinates:248442 249191
Direction:+ Gen Id:fig|6666666.102775.peg.4199 Function hypothetical protein</title></polygon>
	<polygon points="378,42 378,58 375.63,58 374,50 375.63,42 " style="fill: rgb(255,255,255); fill-opacity: 0; stroke: black; stroke-opacity: 1; stroke-width: 1" >
<title>Identity:0 Organism:Streptomyces bikiniensis JNWL01 Coordinates:249193 249636
Direction:+ Gen Id:fig|6666666.102775.peg.4200 Function hypothetical protein</title></polygon>
	<polygon points="374,42 374,58 371.63,58 370,50 371.63,42 " style="fill: rgb(255,255,255); fill-opacity: 0; stroke: black; stroke-opacity: 1; stroke-width: 1" >
<title>Identity:0 Organism:Streptomyces bikiniensis JNWL01 Coordinates:249611 250069
Direction:+ Gen Id:fig|6666666.102775.peg.4201 Function hypothetical protein</title></polygon>
	<polygon points="370,42 370,58 367.63,58 366,50 367.63,42 " style="fill: rgb(255,255,255); fill-opacity: 0; stroke: black; stroke-opacity: 1; stroke-width: 1" >
<title>Identity:0 Organism:Streptomyces bikiniensis JNWL01 Coordinates:250082 250525
Direction:+ Gen Id:fig|6666666.102775.peg.4202 Function hypothetical protein</title></polygon>
	<polygon points="366,42 366,58 362.63,58 361,50 362.63,42 " style="fill: rgb(255,255,255); fill-opacity: 0; stroke: black; stroke-opacity: 1; stroke-width: 1" >
<title>Identity:0 Organism:Streptomyces bikiniensis JNWL01 Coordinates:250522 251025
Direction:+ Gen Id:fig|6666666.102775.peg.4203 Function hypothetical protein</title></polygon>
	<text x="20" y="80">Genome 213652_6920:Streptomyces Purpeofuscus JODS01    Gen:6920</text>
	<polygon points="310,92 310,108 313.37,108 315,100 313.37,92 " style="fill: rgb(150,189,150); fill-opacity: 1; stroke: black; stroke-opacity: 1; stroke-width: 1" >
<title>Identity:1 Organism:Streptomyces Purpeofuscus JODS01 Coordinates:61865 62446
Direction:+ Gen Id:fig|6666666.100157.peg.6910 Function Transcriptional regulator, PadR family</title></polygon>
	<polygon points="316,92 316,108 321.37,108 323,100 321.37,92 " style="fill: rgb(74,190,150); fill-opacity: 1; stroke: black; stroke-opacity: 1; stroke-width: 1" >
<title>Identity:1 Organism:Streptomyces Purpeofuscus JODS01 Coordinates:62539 63285
Direction:+ Gen Id:fig|6666666.100157.peg.6911 Function hypothetical protein</title></polygon>
	<polygon points="329,92 329,108 325.63,108 324,100 325.63,92 " style="fill: rgb(162,221,39); fill-opacity: 1; stroke: black; stroke-opacity: 1; stroke-width: 1" >
<title>Identity:1 Organism:Streptomyces Purpeofuscus JODS01 Coordinates:63892 63362
Direction:- Gen Id:fig|6666666.100157.peg.6912 Function pectate lyase A</title></polygon>
	<polygon points="332,92 332,108 339.37,108 341,100 339.37,92 " style="fill: rgb(249,170,205); fill-opacity: 1; stroke: black; stroke-opacity: 1; stroke-width: 1" >
<title>Identity:1 Organism:Streptomyces Purpeofuscus JODS01 Coordinates:64174 65202
Direction:+ Gen Id:fig|6666666.100157.peg.6913 Function Putative regulatory protein</title></polygon>
	<polygon points="344,92 344,108 345.37,108 347,100 345.37,92 " style="fill: rgb(33,160,9); fill-opacity: 1; stroke: black; stroke-opacity: 1; stroke-width: 1" >
<title>Identity:1 Organism:Streptomyces Purpeofuscus JODS01 Coordinates:65504 65866
Direction:+ Gen Id:fig|6666666.100157.peg.6914 Function hypothetical protein</title></polygon>
	<polygon points="356,92 356,108 350.63,108 349,100 350.63,92 " style="fill: rgb(75,148,234); fill-opacity: 1; stroke: black; stroke-opacity: 1; stroke-width: 1" >
<title>Identity:1 Organism:Streptomyces Purpeofuscus JODS01 Coordinates:66780 65992
Direction:- Gen Id:fig|6666666.100157.peg.6915 Function NAD(P)H oxidoreductase YRKL (EC 1.6.99.-) @ Putative NADPH-quinone reductase (modulator of drug activity B) @ Flavodoxin 2</title></polygon>
	<polygon points="357,92 357,108 363.37,108 365,100 363.37,92 " style="fill: rgb(62,208,24); fill-opacity: 1; stroke: black; stroke-opacity: 1; stroke-width: 1" >
<title>Identity:1 Organism:Streptomyces Purpeofuscus JODS01 Coordinates:66878 67747
Direction:+ Gen Id:fig|6666666.100157.peg.6916 Function DNA-binding protein</title></polygon>
	<polygon points="385,92 385,108 380.63,108 379,100 380.63,92 " style="fill: rgb(14,160,225); fill-opacity: 1; stroke: black; stroke-opacity: 1; stroke-width: 1" >
<title>Identity:1 Organism:Streptomyces Purpeofuscus JODS01 Coordinates:69811 69197
Direction:- Gen Id:fig|6666666.100157.peg.6917 Function hypothetical protein</title></polygon>
	<polygon points="393,92 393,108 398.37,108 400,100 398.37,92 " style="fill: rgb(47,232,114); fill-opacity: 1; stroke: black; stroke-opacity: 1; stroke-width: 1" >
<title>Identity:1 Organism:Streptomyces Purpeofuscus JODS01 Coordinates:70662 71441
Direction:+ Gen Id:fig|6666666.100157.peg.6918 Function alpha/beta hydrolase fold</title></polygon>
	<polygon points="401,92 401,108 406.37,108 408,100 406.37,92 " style="fill: rgb(66,213,39); fill-opacity: 1; stroke: black; stroke-opacity: 1; stroke-width: 1" >
<title>Identity:1 Organism:Streptomyces Purpeofuscus JODS01 Coordinates:71575 72267
Direction:+ Gen Id:fig|6666666.100157.peg.6919 Function ThiJ/PfpI family protein</title></polygon>
	<polygon points="410,92 410,108 414.37,108 416,100 414.37,92 " style="fill: rgb(254,30,30); fill-opacity: 1; stroke: black; stroke-opacity: 1; stroke-width: 1" >
<title>Identity:1 Organism:Streptomyces Purpeofuscus JODS01 Coordinates:72458 73159
Direction:+ Gen Id:fig|6666666.100157.peg.6920 Function Phosphoribosylanthranilate isomerase (EC 5.3.1.24)</title></polygon>
	<polygon points="416,92 416,108 420.37,108 422,100 420.37,92 " style="fill: rgb(223,144,105); fill-opacity: 1; stroke: black; stroke-opacity: 1; stroke-width: 1" >
<title>Identity:1 Organism:Streptomyces Purpeofuscus JODS01 Coordinates:73159 73839
Direction:+ Gen Id:fig|6666666.100157.peg.6921 Function Uracil phosphoribosyltransferase (EC 2.4.2.9)</title></polygon>
	<polygon points="424,92 424,108 428.37,108 430,100 428.37,92 " style="fill: rgb(72,169,171); fill-opacity: 1; stroke: black; stroke-opacity: 1; stroke-width: 1" >
<title>Identity:1 Organism:Streptomyces Purpeofuscus JODS01 Coordinates:74001 74678
Direction:+ Gen Id:fig|6666666.100157.peg.6922 Function Trp repressor binding protein</title></polygon>
	<polygon points="432,92 432,108 469.37,108 471,100 469.37,92 " style="fill: rgb(199,111,66); fill-opacity: 1; stroke: black; stroke-opacity: 1; stroke-width: 1" >
<title>Identity:1 Organism:Streptomyces Purpeofuscus JODS01 Coordinates:74797 79014
Direction:+ Gen Id:fig|6666666.100157.peg.6923 Function Peptide synthetase</title></polygon>
	<polygon points="471,92 471,108 478.37,108 480,100 478.37,92 " style="fill: rgb(51,140,35); fill-opacity: 1; stroke: black; stroke-opacity: 1; stroke-width: 1" >
<title>Identity:1 Organism:Streptomyces Purpeofuscus JODS01 Coordinates:79014 79976
Direction:+ Gen Id:fig|6666666.100157.peg.6924 Function Indigoidine synthase A-like protein, uncharacterized enzyme involved in pigment biosynthesis</title></polygon>
	<polygon points="481,92 481,108 486.37,108 488,100 486.37,92 " style="fill: rgb(3,176,222); fill-opacity: 1; stroke: black; stroke-opacity: 1; stroke-width: 1" >
<title>Identity:1 Organism:Streptomyces Purpeofuscus JODS01 Coordinates:80034 80750
Direction:+ Gen Id:fig|6666666.100157.peg.6925 Function Ribosomal protein L11 methyltransferase (EC 2.1.1.-)</title></polygon>
	<polygon points="497,92 497,108 489.63,108 488,100 489.63,92 " style="fill: rgb(130,201,184); fill-opacity: 1; stroke: black; stroke-opacity: 1; stroke-width: 1" >
<title>Identity:1 Organism:Streptomyces Purpeofuscus JODS01 Coordinates:81729 80815
Direction:- Gen Id:fig|6666666.100157.peg.6926 Function Transcriptional regulator, LysR family</title></polygon>
	<polygon points="499,92 499,108 503.37,108 505,100 503.37,92 " style="fill: rgb(42,198,8); fill-opacity: 1; stroke: black; stroke-opacity: 1; stroke-width: 1" >
<title>Identity:1 Organism:Streptomyces Purpeofuscus JODS01 Coordinates:81958 82599
Direction:+ Gen Id:fig|6666666.100157.peg.6927 Function FIG00820885: hypothetical protein</title></polygon>
	<polygon points="506,92 506,108 513.37,108 515,100 513.37,92 " style="fill: rgb(222,228,210); fill-opacity: 1; stroke: black; stroke-opacity: 1; stroke-width: 1" >
<title>Identity:1 Organism:Streptomyces Purpeofuscus JODS01 Coordinates:82755 83672
Direction:+ Gen Id:fig|6666666.100157.peg.6928 Function Permease of the drug/metabolite transporter (DMT) superfamily</title></polygon>
	<polygon points="516,92 516,108 526.37,108 528,100 526.37,92 " style="fill: rgb(173,236,29); fill-opacity: 1; stroke: black; stroke-opacity: 1; stroke-width: 1" >
<title>Identity:1 Organism:Streptomyces Purpeofuscus JODS01 Coordinates:83799 85016
Direction:+ Gen Id:fig|6666666.100157.peg.6929 Function integral membrane transport protein</title></polygon>
	<!-- 
	Generated using the Perl SVG Module V2.64
	by Ronan Oger
	Info: http://www.roitsystems.com/
 -->
</svg>