<?xml version="1.0" encoding="UTF-8" standalone="yes"?>
<!DOCTYPE svg PUBLIC "-//W3C//DTD SVG 1.0//EN" "http://www.w3.org/TR/2001/REC-SVG-20010904/DTD/svg10.dtd">
<svg height="100" onload="Init(evt)" onmousemove=" GetTrueCoords(evt); 
			ShowTooltip(evt, true)" onmouseout="ShowTooltip(evt, false)" width="1000" xmlns="http://www.w3.org/2000/svg" xmlns:svg="http://www.w3.org/2000/svg" xmlns:xlink="http://www.w3.org/1999/xlink">
	<script  />
	<polyline points="10,50 810,50 " style="fill-opacity: 0; stroke: rgb(250,123,23); stroke-opacity: 0.1" />
	<text x="20" y="30">Genome 218056_4194:Streptomyces bikiniensis JNWL01    Gen:4194</text>
	<polygon points="529,42 529,58 537.37,58 539,50 537.37,42 " style="fill: rgb(255,255,255); fill-opacity: 0; stroke: black; stroke-opacity: 1; stroke-width: 1" >
<title>Identity:0 Organism:Streptomyces bikiniensis JNWL01 Coordinates:233184 232096
Direction:- Gen Id:fig|6666666.102775.peg.4184 Function FIG01128404: hypothetical protein</title></polygon>
	<polygon points="523,42 523,58 527.37,58 529,50 527.37,42 " style="fill: rgb(255,255,255); fill-opacity: 0; stroke: black; stroke-opacity: 1; stroke-width: 1" >
<title>Identity:0 Organism:Streptomyces bikiniensis JNWL01 Coordinates:233834 233181
Direction:- Gen Id:fig|6666666.102775.peg.4185 Function Two-component response regulator</title></polygon>
	<polygon points="521,42 521,58 508.63,58 507,50 508.63,42 " style="fill: rgb(255,255,255); fill-opacity: 0; stroke: black; stroke-opacity: 1; stroke-width: 1" >
<title>Identity:0 Organism:Streptomyces bikiniensis JNWL01 Coordinates:233962 235539
Direction:+ Gen Id:fig|6666666.102775.peg.4186 Function Methionyl-tRNA synthetase (EC 6.1.1.10)</title></polygon>
	<polygon points="496,42 496,58 503.37,58 505,50 503.37,42 " style="fill: rgb(255,255,255); fill-opacity: 0; stroke: black; stroke-opacity: 1; stroke-width: 1" >
<title>Identity:0 Organism:Streptomyces bikiniensis JNWL01 Coordinates:236688 235687
Direction:- Gen Id:fig|6666666.102775.peg.4187 Function Ribose-phosphate pyrophosphokinase (EC 2.7.6.1)</title></polygon>
	<polygon points="486,42 486,58 494.37,58 496,50 494.37,42 " style="fill: rgb(255,255,255); fill-opacity: 0; stroke: black; stroke-opacity: 1; stroke-width: 1" >
<title>Identity:0 Organism:Streptomyces bikiniensis JNWL01 Coordinates:237755 236685
Direction:- Gen Id:fig|6666666.102775.peg.4188 Function NADH:flavin oxidoreductase/NADH oxidase</title></polygon>
	<polygon points="477,42 477,58 483.37,58 485,50 483.37,42 " style="fill: rgb(178,187,49); fill-opacity: 0.7245; stroke: black; stroke-opacity: 1; stroke-width: 1" >
<title>Identity:0.7245 Organism:Streptomyces bikiniensis JNWL01 Coordinates:238728 237796
Direction:- Gen Id:fig|6666666.102775.peg.4189 Function Indigoidine synthase A-like protein, uncharacterized enzyme involved in pigment biosynthesis</title></polygon>
	<polygon points="474,42 474,58 475.37,58 477,50 475.37,42 " style="fill: rgb(255,255,255); fill-opacity: 0; stroke: black; stroke-opacity: 1; stroke-width: 1" >
<title>Identity:0 Organism:Streptomyces bikiniensis JNWL01 Coordinates:238979 238725
Direction:- Gen Id:fig|6666666.102775.peg.4190 Function hypothetical protein</title></polygon>
	<polygon points="438,42 438,58 471.37,58 473,50 471.37,42 " style="fill: rgb(15,105,231); fill-opacity: 0.5425; stroke: black; stroke-opacity: 1; stroke-width: 1" >
<title>Identity:0.5425 Organism:Streptomyces bikiniensis JNWL01 Coordinates:242881 239060
Direction:- Gen Id:fig|6666666.102775.peg.4191 Function Peptide synthetase</title></polygon>
	<polygon points="428,42 428,58 435.37,58 437,50 435.37,42 " style="fill: rgb(213,175,149); fill-opacity: 0.6491; stroke: black; stroke-opacity: 1; stroke-width: 1" >
<title>Identity:0.6491 Organism:Streptomyces bikiniensis JNWL01 Coordinates:243848 242940
Direction:- Gen Id:fig|6666666.102775.peg.4192 Function Permease of the drug/metabolite transporter (DMT) superfamily</title></polygon>
	<polygon points="422,42 422,58 426.37,58 428,50 426.37,42 " style="fill: rgb(141,207,157); fill-opacity: 0.6232; stroke: black; stroke-opacity: 1; stroke-width: 1" >
<title>Identity:0.6232 Organism:Streptomyces bikiniensis JNWL01 Coordinates:244510 243845
Direction:- Gen Id:fig|6666666.102775.peg.4193 Function Uracil phosphoribosyltransferase (EC 2.4.2.9)</title></polygon>
	<polygon points="410,42 410,58 415.37,58 417,50 415.37,42 " style="fill: rgb(254,30,30); fill-opacity: 0.6697; stroke: black; stroke-opacity: 1; stroke-width: 1" >
<title>Identity:0.6697 Organism:Streptomyces bikiniensis JNWL01 Coordinates:245752 245069
Direction:- Gen Id:fig|6666666.102775.peg.4194 Function Phosphoribosylanthranilate isomerase (EC 5.3.1.24)</title></polygon>
	<polygon points="404,42 404,58 408.37,58 410,50 408.37,42 " style="fill: rgb(255,255,255); fill-opacity: 0; stroke: black; stroke-opacity: 1; stroke-width: 1" >
<title>Identity:0 Organism:Streptomyces bikiniensis JNWL01 Coordinates:246488 245826
Direction:- Gen Id:fig|6666666.102775.peg.4195 Function NADH dehydrogenase (EC 1.6.99.3)</title></polygon>
	<polygon points="402,42 402,58 399.63,58 398,50 399.63,42 " style="fill: rgb(255,255,255); fill-opacity: 0; stroke: black; stroke-opacity: 1; stroke-width: 1" >
<title>Identity:0 Organism:Streptomyces bikiniensis JNWL01 Coordinates:246616 247104
Direction:+ Gen Id:fig|6666666.102775.peg.4196 Function Transcriptional regulator, MarR family</title></polygon>
	<polygon points="397,42 397,58 395.63,58 394,50 395.63,42 " style="fill: rgb(255,255,255); fill-opacity: 0; stroke: black; stroke-opacity: 1; stroke-width: 1" >
<title>Identity:0 Organism:Streptomyces bikiniensis JNWL01 Coordinates:247151 247486
Direction:+ Gen Id:fig|6666666.102775.peg.4197 Function hypothetical protein</title></polygon>
	<polygon points="394,42 394,58 389.63,58 388,50 389.63,42 " style="fill: rgb(255,255,255); fill-opacity: 0; stroke: black; stroke-opacity: 1; stroke-width: 1" >
<title>Identity:0 Organism:Streptomyces bikiniensis JNWL01 Coordinates:247509 248171
Direction:+ Gen Id:fig|6666666.102775.peg.4198 Function hypothetical protein</title></polygon>
	<polygon points="385,42 385,58 379.63,58 378,50 379.63,42 " style="fill: rgb(255,255,255); fill-opacity: 0; stroke: black; stroke-opacity: 1; stroke-width: 1" >
<title>Identity:0 Organism:Streptomyces bikiniensis JNWL01 Coordinates:248442 249191
Direction:+ Gen Id:fig|6666666.102775.peg.4199 Function hypothetical protein</title></polygon>
	<polygon points="378,42 378,58 375.63,58 374,50 375.63,42 " style="fill: rgb(255,255,255); fill-opacity: 0; stroke: black; stroke-opacity: 1; stroke-width: 1" >
<title>Identity:0 Organism:Streptomyces bikiniensis JNWL01 Coordinates:249193 249636
Direction:+ Gen Id:fig|6666666.102775.peg.4200 Function hypothetical protein</title></polygon>
	<polygon points="374,42 374,58 371.63,58 370,50 371.63,42 " style="fill: rgb(255,255,255); fill-opacity: 0; stroke: black; stroke-opacity: 1; stroke-width: 1" >
<title>Identity:0 Organism:Streptomyces bikiniensis JNWL01 Coordinates:249611 250069
Direction:+ Gen Id:fig|6666666.102775.peg.4201 Function hypothetical protein</title></polygon>
	<polygon points="370,42 370,58 367.63,58 366,50 367.63,42 " style="fill: rgb(255,255,255); fill-opacity: 0; stroke: black; stroke-opacity: 1; stroke-width: 1" >
<title>Identity:0 Organism:Streptomyces bikiniensis JNWL01 Coordinates:250082 250525
Direction:+ Gen Id:fig|6666666.102775.peg.4202 Function hypothetical protein</title></polygon>
	<polygon points="366,42 366,58 362.63,58 361,50 362.63,42 " style="fill: rgb(255,255,255); fill-opacity: 0; stroke: black; stroke-opacity: 1; stroke-width: 1" >
<title>Identity:0 Organism:Streptomyces bikiniensis JNWL01 Coordinates:250522 251025
Direction:+ Gen Id:fig|6666666.102775.peg.4203 Function hypothetical protein</title></polygon>
	<!-- 
	Generated using the Perl SVG Module V2.64
	by Ronan Oger
	Info: http://www.roitsystems.com/
 -->
</svg>