<?xml version="1.0" encoding="utf-8"?>
<!-- Generator: Adobe Illustrator 19.2.1, SVG Export Plug-In . SVG Version: 6.00 Build 0)  -->
<svg version="1.1" id="Слой_1" xmlns="http://www.w3.org/2000/svg" xmlns:xlink="http://www.w3.org/1999/xlink" x="0px" y="0px"
	 viewBox="0 0 321.2 142.3" style="enable-background:new 0 0 321.2 142.3;" xml:space="preserve">
<g>
	<rect x="70.3" y="91.7" transform="matrix(0.8654 -0.5011 0.5011 0.8654 -35.8564 52.3484)" width="18.4" height="2.4"/>
	<rect x="92.2" y="43.8" transform="matrix(0.8653 -0.5012 0.5012 0.8653 -13.1501 53.7367)" width="2.4" height="15.2"/>
	<rect x="83.2" y="48.9" transform="matrix(0.8664 -0.4993 0.4993 0.8664 -16.9308 49.6987)" width="2.4" height="15.1"/>
	<rect x="114.7" y="55.4" transform="matrix(0.499 -0.8666 0.8666 0.499 12.2892 134.4501)" width="15.5" height="2.4"/>
	<rect x="105.7" y="50.2" transform="matrix(0.5004 -0.8658 0.8658 0.5004 12.152 123.8926)" width="15.4" height="2.4"/>
	<path d="M60.6,94.7c-3.1-1.8-7-1.8-7-1.8c-3.9,0-7,1.8-7,1.8c-3.2,1.8-4.9,5.2-4.9,5.2c-1.8,3.4-1.8,7.8-1.8,7.8
		c0,4.3,1.8,7.7,1.8,7.7c1.8,3.4,4.9,5.2,4.9,5.2c3.2,1.8,7.1,1.8,7.1,1.8c3.9,0,7-1.8,7-1.8c3.1-1.8,4.9-5.2,4.9-5.2
		c1.8-3.4,1.8-7.8,1.8-7.8c0-4.5-1.8-7.8-1.8-7.8C63.7,96.5,60.6,94.7,60.6,94.7z M62.1,113.9c-1.2,2.6-3.5,4-3.5,4
		c-2.2,1.4-5,1.4-5,1.4c-2.8,0-5-1.4-5-1.4c-2.2-1.4-3.5-4-3.5-4c-1.2-2.6-1.2-6.1-1.2-6.1c0-3.6,1.2-6.3,1.2-6.3
		c1.2-2.6,3.5-4,3.5-4c2.2-1.4,5.1-1.4,5.1-1.4c2.9,0,5.1,1.4,5.1,1.4c2.2,1.4,3.5,4,3.5,4c1.2,2.6,1.2,6.2,1.2,6.2
		C63.3,111.3,62.1,113.9,62.1,113.9z"/>
	<polygon points="32.1,105.1 18,105.1 18,93.3 14.2,93.3 14.2,122 18,122 18,108.5 32.1,108.5 32.1,122 35.9,122 35.9,93.3 
		32.1,93.3 	"/>
	<path d="M110.3,78.4c-2.2-1.1-6.1-2-6.1-2c-2.8-0.6-4.3-1.1-4.3-1.1c-1.5-0.6-2.2-1.4-2.2-1.4C97,73.1,97,71.7,97,71.7
		c0-1.4,0.8-2.4,0.8-2.4c0.8-1,2.2-1.5,2.2-1.5c1.4-0.6,3.3-0.6,3.3-0.6c2.8,0,4.5,1.4,4.5,1.4c1.6,1.3,2.3,4.4,2.3,4.4h0.1l3.6-0.8
		c-0.3-2.6-1.7-4.4-1.7-4.4c-1.4-1.8-3.6-2.8-3.6-2.8c-2.2-1-5.2-1-5.2-1c-2.8,0-5,1-5,1c-2.3,1-3.6,2.8-3.6,2.8
		c-1.3,1.7-1.3,3.9-1.3,3.9c0,2,0.7,3.4,0.7,3.4c0.6,1.4,2.3,2.6,2.3,2.6c1.7,1.1,4.6,1.9,4.6,1.9c0.7,0.2,2.3,0.6,2.3,0.6
		c2.8,0.6,4.2,1.1,4.2,1.1c1.7,0.6,2.6,1.6,2.6,1.6c0.9,1,0.9,2.8,0.9,2.8c0,1.3-0.9,2.4-0.9,2.4c-0.9,1.1-2.5,1.7-2.5,1.7
		c-1.6,0.6-3.4,0.6-3.4,0.6c-3.6,0-5.6-1.8-5.6-1.8c-2-1.8-2.4-5.3-2.4-5.3l-3.7,0.9c0.7,4.6,3.8,7,3.8,7c3,2.4,8.2,2.4,8.2,2.4
		c3,0,5.3-1.1,5.3-1.1c2.4-1.1,3.7-3.1,3.7-3.1c1.3-2,1.3-4.4,1.3-4.4c0-2.4-1-4-1-4C112.6,79.5,110.3,78.4,110.3,78.4z"/>
	<path d="M81.7,41.9c3.1-1.8,4.9-5.2,4.9-5.2c1.8-3.4,1.8-7.8,1.8-7.8c0-4.5-1.8-7.8-1.8-7.8c-1.8-3.3-4.9-5.2-4.9-5.2
		c-3.1-1.8-7-1.8-7-1.8c-3.9,0-7,1.8-7,1.8c-3.2,1.8-4.9,5.2-4.9,5.2C61,24.6,61,29,61,29c0,4.3,1.8,7.7,1.8,7.7
		c1.8,3.4,4.9,5.2,4.9,5.2c3.1,1.8,7,1.8,7,1.8C78.6,43.8,81.7,41.9,81.7,41.9z M69.6,39.2c-2.2-1.4-3.5-4-3.5-4
		c-1.2-2.6-1.2-6.1-1.2-6.1c0-3.6,1.2-6.3,1.2-6.3c1.2-2.6,3.5-4,3.5-4c2.2-1.4,5.1-1.4,5.1-1.4c2.9,0,5.1,1.4,5.1,1.4
		c2.2,1.4,3.4,4,3.4,4c1.2,2.6,1.2,6.2,1.2,6.2c0,3.6-1.2,6.2-1.2,6.2c-1.2,2.6-3.4,4-3.4,4c-2.2,1.4-5.1,1.4-5.1,1.4
		C71.8,40.5,69.6,39.2,69.6,39.2z"/>
	<path d="M125.3,41.9c3.1,1.8,7,1.8,7,1.8c3.9,0,7-1.8,7-1.8c3.1-1.8,4.9-5.2,4.9-5.2C146,33.4,146,29,146,29c0-4.5-1.8-7.8-1.8-7.8
		c-1.8-3.3-4.9-5.2-4.9-5.2c-3.1-1.8-7-1.8-7-1.8c-3.9,0-7,1.8-7,1.8c-3.2,1.8-4.9,5.2-4.9,5.2c-1.8,3.4-1.8,7.8-1.8,7.8
		c0,4.3,1.8,7.7,1.8,7.7C122.1,40.1,125.3,41.9,125.3,41.9z M123.7,22.8c1.2-2.6,3.5-4,3.5-4c2.2-1.4,5.1-1.4,5.1-1.4
		c2.9,0,5.1,1.4,5.1,1.4c2.2,1.4,3.4,4,3.4,4c1.2,2.6,1.2,6.2,1.2,6.2c0,3.6-1.2,6.2-1.2,6.2c-1.2,2.6-3.4,4-3.4,4
		c-2.2,1.4-5.1,1.4-5.1,1.4c-2.8,0-5-1.4-5-1.4c-2.2-1.4-3.5-4-3.5-4c-1.2-2.6-1.2-6.1-1.2-6.1C122.5,25.5,123.7,22.8,123.7,22.8z"
		/>
	<polygon points="205.6,79.1 203.8,78.1 203.8,78.1 203.8,78.1 203.2,77.7 202.6,78.1 154.5,105.9 154.4,105.9 153.3,106.5 
		152.2,105.9 152.2,105.9 120.8,87.7 119.6,89.8 152.7,108.9 152.7,108.9 153.3,109.3 153.9,108.9 153.9,108.9 202.1,81.1 
		202.1,81.1 203.2,80.5 236,99.4 237.2,97.3 205.6,79.1 	"/>
	<polygon points="260.5,115.4 260.4,115.4 246.1,93.1 242.1,93.1 242.1,121.7 245.7,121.7 245.7,99.4 245.8,99.4 260.2,121.7 
		264.1,121.7 264.1,93.1 260.5,93.1 	"/>
	<polygon points="285.9,104.9 271.9,104.9 271.9,93.1 268.1,93.1 268.1,121.7 271.9,121.7 271.9,108.3 285.9,108.3 285.9,121.7 
		289.8,121.7 289.8,93.1 285.9,93.1 	"/>
	<path d="M297.2,125.7c0.4-0.8,1.1-1.4,1.1-1.4c0.7-0.7,1.8-1.6,1.8-1.6l1.8-1.5c2.5-2.1,3.8-3.9,3.8-3.9c1.3-1.8,1.3-3.7,1.3-3.7
		c0-1.5-0.8-2.8-0.8-2.8c-0.8-1.2-2.2-2-2.2-2c-1.4-0.7-3.3-0.7-3.3-0.7c-1.8,0-3.2,0.7-3.2,0.7c-1.4,0.7-2.3,2-2.3,2
		c-0.8,1.2-1,3-1,3l2.6,0.4c0.1-2,1.1-3,1.1-3c1-1,2.8-1,2.8-1c1.1,0,1.9,0.4,1.9,0.4c0.9,0.4,1.4,1.2,1.4,1.2
		c0.5,0.8,0.5,1.7,0.5,1.7c0,1.4-1,2.9-1,2.9c-1.1,1.5-3.4,3.4-3.4,3.4l-1.6,1.3c-2.4,2-3.5,3.6-3.5,3.6c-1.2,1.6-1.2,3.4-1.2,3.4
		h13.3v-2.4H297.2z"/>
</g>
</svg>
